<?xml version="1.0" encoding="UTF-8"?>
<svg xmlns="http://www.w3.org/2000/svg" xmlns:xlink="http://www.w3.org/1999/xlink" version="1.1" viewBox="0 0 152 146">
  <defs>
    <style>
      .cls-1 {
        mask: url(#mask);
      }

      .cls-2 {
        fill: #0081c6;
      }

      .cls-3 {
        stroke: #5f6469;
      }

      .cls-3, .cls-4 {
        fill: none;
        stroke-miterlimit: 10;
        stroke-width: .8px;
      }

      .cls-5 {
        fill: #666c71;
      }

      .cls-6 {
        mask: url(#mask-1);
      }

      .cls-7 {
        fill: #fbab18;
      }

      .cls-8 {
        fill: #606469;
      }

      .cls-4 {
        stroke: #666c71;
      }

      .cls-9 {
        fill: #fff;
      }

      .cls-10 {
        fill: #00ae57;
      }

      .cls-11 {
        fill: #f04931;
      }
    </style>
    <mask id="mask" x="4.4" y="4.4" width="143.3" height="136.7" maskUnits="userSpaceOnUse">
      <g id="mask0_35_840">
        <path class="cls-9" d="M147.6,4.4H4.4v136.7h143.3V4.4Z"/>
      </g>
    </mask>
    <mask id="mask-1" x="4.4" y="4.4" width="143.3" height="136.7" maskUnits="userSpaceOnUse">
      <g id="mask1_35_840">
        <path class="cls-9" d="M147.6,4.4H4.4v136.7h143.3V4.4Z"/>
      </g>
    </mask>
  </defs>
  <!-- Generator: Adobe Illustrator 28.6.0, SVG Export Plug-In . SVG Version: 1.2.0 Build 709)  -->
  <g>
    <g id="Layer_1">
      <path class="cls-9" d="M144.1,140.7H8c-1.7,0-3.2-1.4-3.2-3.2V7.9c0-1.7,1.4-3.2,3.2-3.2h136.1c1.7,0,3.2,1.4,3.2,3.2v129.6c0,1.7-1.4,3.2-3.2,3.2Z"/>
      <g class="cls-1">
        <g>
          <path class="cls-3" d="M144.1,140.7H8c-1.7,0-3.2-1.4-3.2-3.2V7.9c0-1.7,1.4-3.2,3.2-3.2h136.1c1.7,0,3.2,1.4,3.2,3.2v129.6c0,1.7-1.4,3.2-3.2,3.2Z"/>
          <path class="cls-9" d="M144.1,140.7H7.9c-1.7,0-3.2-1.4-3.2-3.2V7.9c0-1.7,1.4-3.2,3.2-3.2h136.2c1.7,0,3.2,1.4,3.2,3.2v129.6c0,1.7-1.4,3.2-3.2,3.2Z"/>
          <path class="cls-5" d="M4.8,112.9v22.9c0,3.5,1.2,4.9,4.9,4.9h132.7c3.9,0,5.7,0,4.9-4.9v-22.9H4.8Z"/>
        </g>
      </g>
      <g class="cls-6">
        <path class="cls-4" d="M144.1,140.7H7.9c-1.7,0-3.2-1.4-3.2-3.2V7.9c0-1.7,1.4-3.2,3.2-3.2h136.2c1.7,0,3.2,1.4,3.2,3.2v129.6c0,1.7-1.4,3.2-3.2,3.2Z"/>
      </g>
      <path class="cls-8" d="M30.3,91.5c-.8-.5-1.5-1.1-1.9-1.9s-.7-1.7-.7-2.7.2-1.9.7-2.7,1.1-1.5,1.9-1.9c.8-.5,1.7-.7,2.7-.7s1.5.1,2.1.4c.7.3,1.2.6,1.6,1.1l-.9.9c-.3-.4-.7-.7-1.2-.9-.5-.2-1.1-.3-1.6-.3s-1.4.2-2,.5c-.6.3-1.1.8-1.5,1.5-.4.6-.6,1.4-.6,2.2s.2,1.6.6,2.2c.4.6.9,1.1,1.5,1.5.6.3,1.3.5,2,.5s1.3-.1,1.7-.3c.5-.2.9-.5,1.2-.8.2-.3.5-.6.6-1,.1-.4.2-.8.3-1.2h-3.8v-1.1h4.9c0,.3,0,.5,0,.7,0,.6,0,1.2-.3,1.8s-.5,1.1-1,1.6c-.9,1-2.2,1.5-3.8,1.5s-1.8-.2-2.7-.7ZM32.9,92.3c-1,0-1.9-.2-2.7-.7-.8-.5-1.5-1.1-2-2-.5-.8-.7-1.8-.7-2.8s.2-1.9.7-2.8c.5-.8,1.1-1.5,2-2,.8-.5,1.7-.7,2.7-.7s1.5.1,2.2.4c.7.3,1.2.7,1.7,1.2h0c0,0-1,1.1-1,1.1h0c-.3-.5-.7-.8-1.2-1-.5-.2-1-.3-1.6-.3s-1.4.2-2,.5c-.6.3-1.1.8-1.5,1.4-.4.6-.6,1.3-.6,2.1s.2,1.5.6,2.1c.4.6.9,1.1,1.5,1.4.6.3,1.3.5,2,.5s1.2,0,1.7-.3c.5-.2.8-.5,1.2-.8.2-.2.4-.6.6-.9.1-.3.2-.7.3-1.1h-3.8v-1.4h5.2c0,.4,0,.6,0,.9,0,.6,0,1.3-.3,1.9-.2.6-.5,1.1-1,1.6-1,1-2.3,1.6-3.9,1.6h0ZM32.9,81.6c-.9,0-1.8.2-2.6.7-.8.5-1.4,1.1-1.9,1.9-.5.8-.7,1.7-.7,2.7s.2,1.9.7,2.7c.5.8,1.1,1.4,1.9,1.9.8.5,1.7.7,2.6.7,1.5,0,2.8-.5,3.7-1.5.4-.4.7-.9.9-1.5.2-.6.3-1.2.3-1.8s0-.4,0-.6h-4.7v.9h3.8c0,.6-.2,1-.3,1.4-.2.4-.4.7-.6,1-.3.4-.8.7-1.2.9-.5.2-1.1.3-1.8.3s-1.4-.2-2.1-.5c-.7-.4-1.2-.9-1.6-1.5-.4-.6-.6-1.4-.6-2.3s.2-1.6.6-2.3c.4-.7.9-1.2,1.6-1.5.6-.4,1.3-.5,2.1-.5s1.2.1,1.7.3c.5.2.9.5,1.2.9l.7-.7c-.4-.4-.9-.8-1.5-1-.6-.3-1.3-.4-2.1-.4h0ZM41,91.7c-.6-.3-1-.8-1.3-1.4-.3-.6-.5-1.2-.5-2s.2-1.4.5-2c.3-.6.8-1.1,1.3-1.4.6-.3,1.2-.5,1.9-.5s1.4.2,1.9.5c.6.3,1,.8,1.3,1.4.3.6.5,1.2.5,2s-.2,1.4-.5,2c-.3.6-.8,1.1-1.3,1.4-.6.3-1.2.5-1.9.5s-1.4-.2-1.9-.5ZM44.1,90.8c.4-.2.7-.6.9-1s.3-.9.3-1.5-.1-1-.3-1.5c-.2-.4-.5-.7-.9-1-.4-.2-.8-.3-1.2-.3s-.9.1-1.3.3c-.4.2-.7.6-.9,1-.2.4-.3.9-.3,1.5s.1,1.1.3,1.5.6.7.9,1c.4.2.8.3,1.3.3s.9-.1,1.2-.3ZM42.9,92.3c-.7,0-1.4-.2-2-.5s-1-.8-1.4-1.4c-.3-.6-.5-1.3-.5-2s.2-1.4.5-2c.3-.6.8-1.1,1.4-1.4.6-.4,1.3-.5,2-.5s1.4.2,2,.5c.6.3,1,.8,1.4,1.4.3.6.5,1.3.5,2s-.2,1.4-.5,2c-.3.6-.8,1.1-1.4,1.4s-1.3.5-2,.5ZM42.9,84.6c-.7,0-1.3.2-1.9.5-.5.3-1,.8-1.3,1.4-.3.6-.5,1.2-.5,1.9s.2,1.3.5,1.9c.3.6.7,1,1.3,1.3.5.3,1.2.5,1.9.5s1.3-.2,1.9-.5c.6-.3,1-.8,1.3-1.3.3-.6.5-1.2.5-1.9s-.2-1.3-.5-1.9c-.3-.6-.7-1-1.3-1.4-.5-.3-1.2-.5-1.9-.5ZM42.9,91.2c-.5,0-.9-.1-1.3-.3-.4-.2-.7-.6-1-1-.2-.4-.4-.9-.4-1.5s.1-1.1.4-1.5c.2-.4.6-.8,1-1,.8-.5,1.8-.5,2.6,0,.4.2.7.6,1,1,.2.4.4.9.4,1.5s-.1,1.1-.4,1.5c-.2.4-.6.8-1,1-.4.2-.9.3-1.3.3ZM42.9,85.7c-.4,0-.8.1-1.2.3-.4.2-.7.5-.9.9-.2.4-.3.9-.3,1.4s.1,1,.3,1.4c.2.4.5.7.9.9.7.4,1.7.4,2.4,0,.4-.2.7-.5.9-.9.2-.4.3-.9.3-1.4s-.1-1-.3-1.4c-.2-.4-.5-.7-.9-.9-.4-.2-.8-.3-1.2-.3ZM49.5,91.7c-.6-.3-1-.8-1.3-1.4-.3-.6-.5-1.2-.5-2s.2-1.4.5-2c.3-.6.8-1.1,1.3-1.4.6-.3,1.2-.5,1.9-.5s1.4.2,1.9.5c.6.3,1,.8,1.3,1.4.3.6.5,1.2.5,2s-.2,1.4-.5,2c-.3.6-.8,1.1-1.3,1.4-.6.3-1.2.5-1.9.5s-1.4-.2-1.9-.5ZM52.7,90.8c.4-.2.7-.6.9-1,.2-.4.3-.9.3-1.5s-.1-1-.3-1.5c-.2-.4-.5-.7-.9-1-.4-.2-.8-.3-1.2-.3s-.9.1-1.3.3c-.4.2-.7.6-.9,1-.2.4-.4.9-.4,1.5s.1,1.1.4,1.5.5.7.9,1c.4.2.8.3,1.3.3s.9-.1,1.2-.3ZM51.4,92.3c-.7,0-1.4-.2-2-.5s-1.1-.8-1.4-1.4c-.3-.6-.5-1.3-.5-2s.2-1.4.5-2,.8-1.1,1.4-1.4c.6-.4,1.3-.5,2-.5s1.4.2,2,.5c.6.3,1,.8,1.4,1.4.3.6.5,1.3.5,2s-.2,1.4-.5,2c-.3.6-.8,1.1-1.4,1.4s-1.3.5-2,.5ZM51.4,84.6c-.7,0-1.3.2-1.9.5-.5.3-1,.8-1.3,1.4-.3.6-.5,1.2-.5,1.9s.2,1.3.5,1.9c.3.6.7,1,1.3,1.3.6.3,1.2.5,1.9.5s1.3-.2,1.9-.5c.5-.3,1-.8,1.3-1.3.3-.6.5-1.2.5-1.9s-.2-1.3-.5-1.9c-.3-.6-.7-1-1.3-1.4-.5-.3-1.2-.5-1.9-.5ZM51.4,91.2c-.5,0-.9-.1-1.3-.3-.4-.2-.7-.6-1-1-.2-.4-.4-.9-.4-1.5s.1-1.1.4-1.5c.2-.4.6-.8,1-1,.8-.5,1.8-.5,2.6,0,.4.2.7.6,1,1,.2.4.4.9.4,1.5s-.1,1.1-.4,1.5c-.2.4-.6.8-1,1-.4.2-.8.3-1.3.3ZM51.4,85.7c-.4,0-.8.1-1.2.3-.4.2-.7.5-.9.9-.2.4-.3.9-.3,1.4s.1,1,.3,1.4c.2.4.5.7.9.9.7.4,1.6.4,2.4,0,.4-.2.7-.5.9-.9.2-.4.3-.9.3-1.4s-.1-1-.3-1.4c-.2-.4-.5-.7-.9-.9-.4-.2-.8-.3-1.2-.3ZM57.6,94.7c-.6-.4-.9-.9-1.1-1.4l1.1-.5c.2.4.4.8.8,1,.4.3.8.4,1.3.4.8,0,1.3-.2,1.8-.6s.6-1,.6-1.8v-.8h0c-.2.4-.6.7-1,.9-.4.2-.9.3-1.5.3s-1.2-.2-1.7-.5c-.5-.3-.9-.8-1.2-1.4-.3-.6-.5-1.3-.5-2s.2-1.4.5-2c.3-.6.7-1.1,1.2-1.4.5-.3,1.1-.5,1.7-.5s1,.1,1.5.4c.4.2.8.5,1,.9h0v-1h1.2v7c0,1.2-.3,2.1-1,2.7s-1.5.9-2.6.9-1.6-.2-2.1-.6h0ZM61,90.8c.4-.2.6-.5.9-1,.2-.4.3-.9.3-1.5s-.1-1.1-.3-1.5c-.2-.4-.5-.7-.9-.9s-.8-.3-1.2-.3-.8.1-1.2.3c-.4.2-.7.5-.9,1-.2.4-.3.9-.3,1.5s.1,1.1.3,1.5c.2.4.5.7.9,1,.4.2.8.3,1.2.3s.8-.1,1.2-.3ZM59.8,95.4c-.9,0-1.6-.2-2.2-.6-.6-.4-1-.9-1.2-1.5h0c0-.1,1.3-.7,1.3-.7h0c.2.5.4.8.8,1.1.3.2.8.4,1.3.4.7,0,1.3-.2,1.7-.6.4-.4.6-1,.6-1.7v-.5c-.2.3-.5.5-.9.7-.5.2-1,.4-1.5.4s-1.2-.2-1.8-.5c-.5-.3-1-.8-1.3-1.4-.3-.6-.5-1.3-.5-2.1s.2-1.5.5-2.1.8-1.1,1.3-1.4c.5-.3,1.1-.5,1.8-.5s1.1.1,1.5.4c.3.2.6.4.9.7v-.9h1.4v7.1c0,1.2-.3,2.1-1,2.8-.7.6-1.6,1-2.7,1h0ZM56.7,93.3c.2.5.5.9,1,1.3.5.4,1.2.6,2,.6s1.9-.3,2.5-.9c.6-.6.9-1.5.9-2.6v-6.9h-.9v1h-.3c-.2-.4-.5-.7-1-.9s-.9-.3-1.4-.3-1.2.2-1.7.5c-.5.3-.9.8-1.2,1.3s-.4,1.2-.4,1.9.1,1.4.4,1.9c.3.6.7,1,1.2,1.3.5.3,1.1.5,1.7.5s1-.1,1.4-.3.7-.5,1-.9h0c0,0,.2,0,.2,0v.9c0,.8-.2,1.4-.7,1.9s-1.1.7-1.8.7-1-.1-1.4-.4c-.4-.2-.6-.6-.8-1l-.9.4h0ZM59.8,91.2c-.5,0-.9-.1-1.3-.3-.4-.2-.7-.6-.9-1-.2-.4-.3-1-.3-1.6s.1-1.1.3-1.5c.2-.4.5-.8.9-1,.4-.2.8-.3,1.3-.3s.9.1,1.3.3c.4.2.7.6.9,1,.2.4.3,1,.3,1.6s-.1,1.1-.3,1.5c-.2.4-.5.8-.9,1-.4.2-.8.3-1.3.3h0ZM59.8,85.7c-.4,0-.8.1-1.1.3-.3.2-.6.5-.8.9-.2.4-.3.9-.3,1.4s0,1,.3,1.4c.2.4.5.7.8.9s.7.3,1.1.3.8-.1,1.1-.3.6-.5.8-.9c.2-.4.3-.9.3-1.4s0-1-.3-1.4c-.2-.4-.5-.7-.8-.9-.3-.2-.7-.3-1.1-.3ZM65.1,81.7h1.2v10.2h-1.2v-10.2ZM66.4,92.1h-1.5v-10.5h1.5v10.5ZM65.2,91.9h1v-10h-1v10ZM69.5,91.7c-.5-.3-1-.8-1.3-1.4-.3-.6-.5-1.2-.5-2s.2-1.3.4-1.9c.3-.6.7-1.1,1.2-1.4.5-.3,1.2-.5,1.9-.5s1.3.2,1.9.5c.5.3.9.8,1.2,1.3s.4,1.2.4,1.9,0,.3,0,.4h-5.8c0,.6.2,1,.4,1.4.2.4.5.7.9.9.4.2.8.3,1.2.3.9,0,1.7-.4,2.2-1.3l1,.5c-.3.6-.7,1.1-1.3,1.4-.5.3-1.2.5-1.9.5s-1.3-.2-1.9-.5h0ZM73.4,87.6c0-.3-.1-.6-.3-.9-.2-.3-.4-.6-.7-.8-.3-.2-.7-.3-1.2-.3s-1.1.2-1.5.6c-.4.4-.7.8-.8,1.4h4.5ZM71.3,92.3c-.7,0-1.4-.2-1.9-.5-.6-.3-1-.8-1.3-1.4s-.5-1.3-.5-2,.2-1.4.4-2c.3-.6.7-1.1,1.3-1.5.6-.4,1.2-.5,1.9-.5s1.4.2,1.9.5c.5.3,1,.8,1.2,1.4.3.6.4,1.2.4,2s0,.3,0,.4h0c0,0-5.7,0-5.7,0,0,.5.2.9.4,1.2.2.4.5.6.9.8s.7.3,1.1.3c.9,0,1.6-.4,2-1.2h0c0,0,1.2.5,1.2.5h0c-.3.7-.8,1.2-1.3,1.6-.6.3-1.2.5-2,.5h0ZM69.5,91.6c.5.3,1.1.5,1.8.5s1.4-.2,1.9-.5c.5-.3.9-.7,1.2-1.2l-.8-.4c-.5.8-1.3,1.3-2.2,1.3s-.8,0-1.2-.3c-.4-.2-.7-.5-1-.9s-.4-.9-.4-1.5h0c0-.1,5.8-.1,5.8-.1,0,0,0-.2,0-.2,0-.7-.1-1.3-.4-1.9-.3-.5-.7-1-1.2-1.3-.5-.3-1.1-.5-1.8-.5s-1.3.2-1.8.5c-.5.3-.9.8-1.2,1.4s-.4,1.2-.4,1.9.2,1.4.4,1.9c.3.6.7,1,1.2,1.3ZM73.6,87.7h-4.7v-.2c.2-.6.4-1.1.9-1.5.4-.4.9-.6,1.5-.6s1,.1,1.3.3c.3.2.6.5.8.8.2.3.2.6.3,1h0ZM69.2,87.4h4.1c0-.2-.1-.5-.2-.7-.1-.3-.4-.5-.7-.7-.3-.2-.7-.3-1.2-.3s-1,.2-1.4.5c-.3.3-.6.7-.7,1.2h0ZM79.1,81.7h3.4c.6,0,1.1.1,1.6.4.5.3.9.6,1.2,1.1.3.5.4,1,.4,1.6s-.2,1.1-.4,1.6c-.3.5-.7.8-1.2,1.1s-1,.4-1.6.4h-2.2v4.2h-1.2v-10.2h0ZM82.6,86.6c.4,0,.7,0,1-.3.3-.2.5-.4.7-.7.2-.3.2-.6.2-.9s0-.6-.2-.9c-.2-.3-.4-.5-.7-.7s-.6-.3-1-.3h-2.3v3.8h2.3ZM80.5,92.1h-1.5v-10.5h3.6c.6,0,1.1.1,1.7.4.5.3.9.6,1.2,1.1.3.5.5,1,.5,1.6s-.2,1.1-.5,1.6c-.3.5-.7.9-1.2,1.1-.5.3-1,.4-1.7.4h-2.1v4.2ZM79.3,91.8h1v-4.2h2.4c.6,0,1.1-.1,1.5-.4.5-.2.8-.6,1.1-1,.3-.4.4-1,.4-1.5s-.1-1.1-.4-1.5c-.3-.4-.7-.8-1.1-1-.5-.2-1-.4-1.5-.4h-3.3v10h0ZM82.6,86.8h-2.4v-4h2.4c.4,0,.8.1,1.1.3.3.2.5.4.7.8.2.3.3.6.3,1s0,.7-.3,1c-.2.3-.4.6-.7.8-.3.2-.7.3-1.1.3ZM80.5,86.5h2.2c.4,0,.7,0,.9-.2.3-.2.5-.4.6-.7.2-.3.2-.6.2-.8s0-.6-.2-.8c-.1-.3-.4-.5-.6-.7-.3-.2-.6-.2-.9-.2h-2.2v3.5ZM88.2,91.9c-.4-.2-.7-.5-1-.9-.2-.4-.3-.8-.3-1.2,0-.8.3-1.4.9-1.8s1.3-.7,2.2-.7.8,0,1.2.1c.4,0,.7.2.9.3v-.4c0-.5-.2-1-.6-1.3s-.9-.5-1.4-.5-.8,0-1.1.3c-.3.2-.6.4-.8.7l-.9-.7c.3-.4.7-.8,1.2-1s1.1-.4,1.7-.4c1,0,1.8.3,2.3.8.6.5.8,1.2.8,2.1v4.6h-1.2v-1h0c-.2.3-.5.7-.9.9s-.9.4-1.4.4-1,0-1.4-.3h0ZM90.9,90.8c.3-.2.6-.5.8-.8.2-.3.3-.7.3-1.2-.2-.2-.5-.3-.8-.4-.3,0-.7-.1-1.1-.1-.7,0-1.2.1-1.5.4-.3.3-.5.6-.5,1.1s.2.7.5,1c.3.2.7.4,1.2.4s.8,0,1.1-.3h0ZM89.7,92.3c-.6,0-1.1-.1-1.5-.3-.4-.2-.8-.5-1-.9-.2-.4-.4-.8-.4-1.3,0-.8.3-1.4.9-1.9.6-.5,1.4-.7,2.3-.7s.9,0,1.2.1c.3,0,.5.2.7.2v-.2c0-.5-.2-.9-.5-1.2-.4-.3-.8-.5-1.4-.5s-.8,0-1.1.2c-.3.2-.6.4-.8.7h0c0,.1-1.1-.7-1.1-.7h0c.3-.6.7-.9,1.2-1.2.5-.2,1.1-.4,1.7-.4,1,0,1.8.3,2.4.8.6.5.9,1.3.9,2.2v4.7h-1.4v-.8c-.2.3-.5.5-.8.7-.4.3-.9.4-1.5.4h0ZM90,87.4c-.9,0-1.6.2-2.1.6-.5.4-.8,1-.8,1.7s.1.8.3,1.2c.2.3.5.6.9.8.4.2.9.3,1.4.3s.9-.1,1.3-.4c.4-.2.7-.5.9-.9h0c0,0,.2,0,.2,0v1h.9v-4.5c0-.8-.3-1.5-.8-2-.5-.5-1.3-.8-2.2-.8s-1.1.1-1.6.4c-.4.2-.8.5-1.1.9l.7.5c.2-.3.5-.5.8-.7.4-.2.8-.3,1.2-.3.6,0,1.1.2,1.5.5.4.3.6.8.6,1.4v.7h-.2c-.2-.2-.5-.3-.8-.4-.4,0-.8-.1-1.2-.1h0ZM89.8,91.3c-.5,0-.9-.1-1.2-.4-.3-.3-.5-.6-.5-1.1s.2-.9.6-1.2c.4-.3.9-.4,1.6-.4s.8,0,1.1.2c.3,0,.6.2.9.4h0c0,.5-.1,1-.3,1.3-.2.4-.5.7-.9.9-.4.2-.8.3-1.2.3h0ZM90.2,88.4c-.6,0-1.1.1-1.4.4-.3.2-.5.6-.5,1s.1.7.4.9c.3.2.6.3,1.1.3s.8,0,1.1-.3c.3-.2.6-.5.8-.8.2-.3.3-.7.3-1-.2-.1-.5-.2-.8-.3-.3,0-.7-.1-1-.1h0ZM94.7,84.8h1.2v1.2h0c.2-.4.5-.8.9-1,.4-.2.9-.4,1.3-.4s.4,0,.5,0v1.2c-.2,0-.4,0-.7,0-.6,0-1.1.2-1.5.6-.4.4-.6.9-.6,1.6v4.1h-1.2v-7.3h0ZM102.1,92.1c-.2,0-.5-.2-.6-.4-.2-.2-.3-.4-.4-.6-.1-.2-.1-.5-.1-.9v-4.3h-1.3v-1.1h1.3v-2.1h1.2v2.1h1.8v1.1h-1.8v4.1c0,.4,0,.7.2.9.2.2.4.3.8.3s.5,0,.8-.2v1.2c-.1,0-.3.1-.4.1s-.3,0-.6,0-.6,0-.8-.2ZM102.9,92.3c-.3,0-.6,0-.9-.2s-.5-.2-.7-.4c-.2-.2-.4-.4-.5-.7s-.2-.6-.2-.9v-4.2h-1.3v-1.3h1.3v-2.1h1.5v2.1h1.8v1.3h-1.8v3.9c0,.4,0,.7.2.8.2.2.4.3.7.3s.5,0,.7-.2h.2c0-.1,0,1.4,0,1.4h0c-.2,0-.3.2-.5.2-.2,0-.3,0-.6,0h0ZM99.8,85.7h1.3v4.5c0,.3,0,.6.1.8,0,.2.2.4.4.6.2.1.4.3.6.4.2,0,.5.1.8.1s.4,0,.5,0c.1,0,.2,0,.3,0v-.9c-.2,0-.4.2-.7.2-.4,0-.7-.1-.9-.4-.2-.2-.3-.5-.3-1v-4.2h1.8v-.8h-1.8v-2.1h-1v2.1h-1.3v.8h0ZM96.1,92.2h-1.5v-7.5h1.4v.9c.2-.3.4-.5.7-.7.4-.2.9-.4,1.4-.4s.4,0,.5,0h.1v1.5h-.2c-.2,0-.4,0-.6,0-.6,0-1,.2-1.4.6-.4.4-.5.9-.5,1.5v4.2ZM94.8,92h1v-3.9c0-.7.2-1.2.6-1.7.4-.4,1-.7,1.6-.7s.4,0,.5,0v-1c-.1,0-.2,0-.4,0-.5,0-.9.1-1.3.3-.4.2-.7.5-.8.9h0c0,0-.3,0-.3,0v-1.2h-.9v7ZM105.3,84.7h1.2v1.1h0c.2-.4.5-.7,1-.9s.9-.4,1.4-.4c.9,0,1.6.2,2,.8.5.5.7,1.2.7,2.1v4.7h-1.2v-4.5c0-.7-.2-1.2-.5-1.5-.3-.3-.8-.5-1.3-.5s-.7.1-1,.3-.6.5-.7.9-.3.7-.3,1.1v4.1h-1.2v-7.3h0ZM111.7,92.1h-1.5v-4.6c0-.6-.2-1.1-.4-1.4-.3-.3-.7-.4-1.2-.4s-.7,0-1,.3-.5.5-.7.8c-.2.3-.2.7-.2,1.1v4.2h-1.5v-7.5h1.4v.9c.2-.3.5-.5.8-.7.5-.3,1-.4,1.5-.4.9,0,1.6.3,2.1.8.5.5.7,1.3.7,2.2v4.8h0ZM110.5,91.9h1v-4.6c0-.8-.2-1.5-.7-2-.4-.5-1.1-.7-1.9-.7s-.9.1-1.3.4c-.4.2-.7.5-.9.9h0c0,0-.3,0-.3,0v-1.1h-.9v7h1v-4c0-.4,0-.8.3-1.2.2-.4.4-.7.8-.9.3-.2.7-.3,1.1-.3.6,0,1.1.2,1.4.5.3.3.5.8.5,1.6v4.4ZM114.7,91.7c-.5-.3-1-.8-1.3-1.4-.3-.6-.5-1.2-.5-2s.2-1.3.4-1.9c.3-.6.7-1.1,1.2-1.4.5-.4,1.2-.5,1.9-.5s1.3.2,1.9.5.9.8,1.2,1.3.4,1.2.4,1.9,0,.3,0,.4h-5.8c0,.6.2,1,.4,1.4.2.4.5.7.9.9.4.2.8.3,1.2.3.9,0,1.7-.4,2.2-1.3l1,.5c-.3.6-.7,1.1-1.3,1.4-.5.3-1.2.5-1.9.5s-1.3-.2-1.9-.5h0ZM118.7,87.6c0-.3-.1-.6-.3-.9-.2-.3-.4-.6-.7-.8-.3-.2-.7-.3-1.2-.3s-1.1.2-1.4.6c-.4.4-.7.8-.8,1.4h4.5ZM116.6,92.3c-.7,0-1.4-.2-1.9-.5-.6-.3-1-.8-1.3-1.4s-.5-1.3-.5-2,.2-1.4.4-2c.3-.6.7-1.1,1.3-1.5.6-.4,1.2-.5,1.9-.5s1.4.2,1.9.5c.5.3,1,.8,1.2,1.4.3.6.4,1.2.4,2s0,.3,0,.4h0c0,0-5.7,0-5.7,0,0,.5.2.9.4,1.2.2.4.5.6.9.8s.7.3,1.1.3c.9,0,1.6-.4,2-1.2h0c0,0,1.2.5,1.2.5h0c-.3.7-.8,1.2-1.3,1.6-.6.3-1.2.5-2,.5h0ZM114.7,91.6c.5.3,1.1.5,1.8.5s1.4-.2,1.9-.5c.5-.3.9-.7,1.2-1.2l-.8-.4c-.5.8-1.3,1.3-2.2,1.3s-.8,0-1.2-.3c-.4-.2-.7-.5-1-.9s-.4-.9-.4-1.5h0c0-.1,5.8-.1,5.8-.1,0,0,0-.2,0-.2,0-.7-.1-1.3-.4-1.9-.3-.5-.7-1-1.2-1.3-.5-.3-1.1-.5-1.8-.5s-1.3.2-1.8.5c-.5.3-.9.8-1.2,1.4-.3.6-.4,1.2-.4,1.9s.2,1.4.4,1.9c.3.6.7,1,1.2,1.3ZM118.8,87.7h-4.7v-.2c.2-.6.4-1.1.8-1.5s.9-.6,1.5-.6,1,.1,1.3.3c.3.2.6.5.8.8.2.3.2.6.3,1h0ZM114.4,87.4h4.2c0-.2-.1-.5-.2-.7s-.4-.5-.7-.7c-.3-.2-.7-.3-1.2-.3s-1,.2-1.4.5c-.3.3-.6.7-.7,1.2h0ZM121.3,84.7h1.2v1.2h0c.1-.4.4-.7.8-1,.4-.3.8-.4,1.3-.4s.6,0,.9.2v1.3c-.3-.1-.7-.2-1-.2s-.7,0-1,.3c-.3.2-.5.5-.7.8-.2.3-.3.7-.3,1.1v4.1h-1.2v-7.3h0ZM122.7,92.1h-1.5v-7.5h1.4v.9c.2-.3.4-.5.7-.7.4-.3.9-.4,1.4-.4s.7,0,.9.2h0v1.6h-.2c-.3-.2-.6-.3-1-.3s-.6,0-.9.3c-.3.2-.5.4-.7.8-.2.3-.2.7-.2,1v4.2h0ZM121.5,91.8h1v-4c0-.4,0-.8.3-1.2.2-.4.4-.6.8-.9.3-.2.7-.3,1-.3s.6,0,.9.2v-1c-.2,0-.5-.1-.7-.1-.4,0-.8.1-1.2.4-.4.2-.7.6-.8.9h0c0,0-.3,0-.3,0v-1.2h-.9v7h0Z"/>
      <path class="cls-2" d="M97.1,48c0-1.5-.2-3-.5-4.4h-20.1v8.3h11.3c-.5,2.7-1.8,5-4.1,6.5v5.4h7c4.1-3.8,6.4-9.3,6.4-15.9Z"/>
      <path class="cls-10" d="M76.4,69.2c5.8,0,10.7-1.9,14.3-5.2l-7-5.4c-1.9,1.3-4.4,2.1-7.3,2.1-5.6,0-10.4-3.8-12.1-8.9h-7.2v5.6c3.5,7.1,10.8,11.9,19.2,11.9h0Z"/>
      <path class="cls-7" d="M64.4,51.7c-.4-1.3-.7-2.7-.7-4.1s.2-2.8.7-4.1v-5.6h-7.2c-1.5,2.9-2.3,6.2-2.3,9.7s.8,6.8,2.3,9.7l7.2-5.6Z"/>
      <path class="cls-11" d="M76.4,34.5c3.2,0,6,1.1,8.2,3.2l6.2-6.2c-3.7-3.5-8.6-5.6-14.4-5.6-8.4,0-15.7,4.8-19.2,11.9l7.2,5.6c1.7-5.1,6.4-8.9,12.1-8.9Z"/>
      <path class="cls-2" d="M138.9,20.8h-8.5v-8.2h4.2v-1.2h-4.2c-.7,0-1.2.5-1.2,1.2v8.2c0,.6.6,1.2,1.2,1.2h8.5c.7,0,1.2-.5,1.2-1.2v-4.1h-1.2v4.1h0ZM135.9,11.5v1.2h2.2l-5.9,5.7.8.8,5.9-5.7v2.1h1.2v-4.1h-4.2Z"/>
    </g>
    <g id="_x32_025">
      <g>
        <path class="cls-9" d="M40,122.3h2.9c.5,0,.9.1,1.3.3s.7.5,1,.9c.2.4.4.8.4,1.3s-.1.9-.4,1.3c-.2.4-.6.7-1,.9-.4.2-.9.3-1.3.3h-1.6v3.2h-1.3v-8.2ZM42.9,126.1c.3,0,.5,0,.7-.2.2-.1.4-.3.5-.5s.2-.4.2-.6,0-.4-.2-.6c-.1-.2-.3-.4-.5-.5-.2-.1-.5-.2-.7-.2h-1.6v2.6h1.6Z"/>
        <path class="cls-9" d="M46.5,122.3h2.9c.5,0,.9.1,1.3.3.4.2.7.5,1,.9.2.4.4.8.4,1.3s-.2,1-.5,1.5c-.4.4-.8.7-1.3.9h0c0,0,2.3,3.3,2.3,3.3h0c0,0-1.5,0-1.5,0l-2.2-3.2h-1v3.2h-1.3v-8.2ZM49.4,126.1c.4,0,.7-.1,1-.4.3-.2.4-.6.4-.9s0-.4-.2-.6-.3-.4-.5-.5c-.2-.1-.4-.2-.7-.2h-1.6v2.6h1.6Z"/>
        <path class="cls-9" d="M53.3,122.3h5v1.2h-3.7v2.3h3.3v1.2h-3.3v2.3h3.7v1.2h-5v-8.2Z"/>
        <path class="cls-9" d="M59.6,122.3h1.7l2.4,6.2h0l2.4-6.2h1.7v8.2h-1.3v-6.1c0,0,0,0,0,0l-2.4,6.1h-1l-2.4-6.1h0v1.5c0,0,0,4.6,0,4.6h-1.3v-8.2Z"/>
        <path class="cls-9" d="M69.5,122.3h1.3v8.2h-1.3v-8.2Z"/>
        <path class="cls-9" d="M72.4,122.3h5v1.2h-3.7v2.3h3.3v1.2h-3.3v2.3h3.7v1.2h-5v-8.2Z"/>
        <path class="cls-9" d="M78.7,122.3h2.9c.5,0,.9.1,1.3.3s.7.5,1,.9c.2.4.4.8.4,1.3s-.2,1-.5,1.5c-.4.4-.8.7-1.3.9h0c0,0,2.3,3.3,2.3,3.3h0c0,0-1.5,0-1.5,0l-2.2-3.2h-1v3.2h-1.3v-8.2ZM81.6,126.1c.4,0,.7-.1,1-.4.3-.2.4-.6.4-.9s0-.4-.2-.6-.3-.4-.5-.5c-.2-.1-.4-.2-.7-.2h-1.6v2.6h1.6Z"/>
        <path class="cls-9" d="M87.5,129.3c.2-.2.7-.7,1.4-1.5s1.2-1.2,1.4-1.5c.3-.3.5-.6.7-.8s.2-.5.2-.8-.1-.6-.3-.8c-.2-.2-.5-.3-.9-.3s-.7.1-.9.3c-.2.2-.4.5-.4.7l-1.1-.5c0-.3.2-.5.4-.8s.5-.5.8-.7c.4-.2.8-.3,1.2-.3s.9.1,1.3.3c.4.2.7.5.9.8s.3.7.3,1.2-.1.9-.4,1.3c-.2.4-.5.8-.9,1.2-.2.1-.5.5-1.2,1.2l-.9.9h0s3.4,0,3.4,0v1.2h-5.1v-1.2Z"/>
        <path class="cls-9" d="M95,130.2c-.5-.4-.9-.9-1.1-1.5s-.4-1.3-.4-2.1.1-1.5.4-2.1c.3-.6.6-1.1,1.1-1.5.5-.4,1.1-.5,1.7-.5s1.2.2,1.7.5c.5.4.9.9,1.1,1.5.3.6.4,1.3.4,2.1s-.1,1.5-.4,2.1-.6,1.1-1.1,1.5c-.5.4-1.1.5-1.7.5s-1.2-.2-1.7-.5ZM97.7,129.1c.3-.3.5-.6.7-1,.2-.4.2-.9.2-1.5s0-1.1-.2-1.5c-.2-.4-.4-.8-.7-1-.3-.3-.6-.4-1-.4s-.7.1-1,.4-.5.6-.7,1-.2.9-.2,1.5,0,1,.2,1.5c.2.4.4.8.7,1s.6.4,1,.4.7-.1,1-.4Z"/>
        <path class="cls-9" d="M100.6,129.3c.2-.2.7-.7,1.4-1.5s1.2-1.2,1.4-1.5c.3-.3.5-.6.7-.8s.2-.5.2-.8-.1-.6-.3-.8c-.2-.2-.5-.3-.9-.3s-.7.1-.9.3c-.2.2-.4.5-.4.7l-1.1-.5c0-.3.2-.5.4-.8s.5-.5.8-.7c.4-.2.8-.3,1.2-.3s.9.1,1.3.3c.4.2.7.5.9.8s.3.7.3,1.2-.1.9-.4,1.3c-.2.4-.5.8-.9,1.2-.2.1-.5.5-1.2,1.2l-.9.9h0s3.4,0,3.4,0v1.2h-5.1v-1.2Z"/>
        <path class="cls-9" d="M108.1,130.5c-.4-.2-.7-.4-1-.7s-.5-.7-.6-1.2l1.1-.4c0,.4.3.7.6,1,.3.3.6.4,1,.4s.8-.1,1.1-.4c.3-.3.4-.6.4-1.1s-.1-.8-.4-1.1-.6-.4-1.1-.4-.5,0-.7.2c-.2.1-.4.3-.5.4l-1.3-.6.5-4h4.3v1.2h-3.2l-.3,2.1h0c.4-.3.9-.5,1.4-.5s.9.1,1.2.3c.4.2.7.5.9.9.2.4.3.9.3,1.4s-.1,1-.4,1.4-.6.7-1,1c-.4.2-.9.3-1.4.3s-.8,0-1.1-.2Z"/>
      </g>
    </g>
  </g>
</svg>