<?xml version="1.0" encoding="utf-8"?>
<!-- Generator: Adobe Illustrator 28.4.1, SVG Export Plug-In . SVG Version: 6.00 Build 0)  -->
<svg version="1.0" id="katman_1" xmlns="http://www.w3.org/2000/svg" xmlns:xlink="http://www.w3.org/1999/xlink" x="0px" y="0px"
	 viewBox="0 0 841.89 595.28" style="enable-background:new 0 0 841.89 595.28;" xml:space="preserve">
<style type="text/css">
	.st0{fill:#E6382E;}
</style>
<path class="st0" d="M280.21,276.09h8.04L249.89,167h-7.62l-38.62,109.1h7.8l12.76-37.42h43.25L280.21,276.09z M226.52,232.21
	l7.07-20.36c4.48-12.9,8.3-24.33,12.12-37.87h0.66c3.8,13.42,7.78,24.85,12.1,37.87l7.07,20.36H226.52z"/>
<path class="st0" d="M704.96,110.76H551.52l-2.78,6.86h156.22c4.65-0.02,9.27,0.89,13.58,2.66c4.31,1.78,8.22,4.39,11.52,7.69
	c3.3,3.3,5.92,7.22,7.71,11.54c1.78,4.32,2.71,8.95,2.71,13.62v288.59c0,4.67-0.92,9.3-2.71,13.62c-1.79,4.31-4.41,8.24-7.71,11.54
	c-3.3,3.3-7.21,5.91-11.52,7.69c-4.31,1.78-8.92,2.68-13.58,2.66H137.03c-4.66,0.02-9.27-0.89-13.58-2.66
	c-4.31-1.78-8.22-4.39-11.52-7.69c-3.3-3.3-5.92-7.22-7.7-11.54c-1.79-4.32-2.71-8.95-2.71-13.62V117.62h345.78l51.88,158.47h8.37
	L543.17,167h-7.64l-20.21,63.74c-4.15,13.23-7.07,23.34-11.6,36.59h-0.66c-4.48-13.26-7.31-23.36-11.44-36.59l-36.24-113.12h0.28
	l-2.59-6.86H94.66v330.96c0.07,11.25,4.57,22.03,12.52,29.96c7.95,7.94,18.71,12.39,29.92,12.39h567.85
	c11.21,0,21.97-4.45,29.92-12.39c7.95-7.93,12.45-18.71,12.52-29.96V153.11c-0.07-11.25-4.57-22.03-12.52-29.96
	C726.92,115.21,716.17,110.76,704.96,110.76z"/>
<path class="st0" d="M373.69,276.1l-30-50.61c17.05-2.37,27.99-12.26,27.99-29.63c0-20.88-14.15-28.81-35.96-28.81h-31.15V276.1
	h7.62v-50.16h23.23l29.48,50.16H373.69z M333.74,219.65h-21.55v-46.23h21.55c19.38,0,29.99,5.97,29.99,22.37
	S353.13,219.65,333.74,219.65z"/>
<path class="st0" d="M618.58,173.6v-6.63h-59.66v109.12h61.31v-6.63h-53.69v-48h43.74v-6.63h-43.74V173.6H618.58z"/>
<path class="st0" d="M642.95,166.97v109.12h57.84v-6.63h-50.22V166.97H642.95z"/>
<path class="st0" d="M456.19,276.09h8.11L425.87,167h-7.64l-38.6,109.1h7.78l12.78-37.42h43.24L456.19,276.09z M402.52,232.21
	l6.96-20.36c4.48-12.9,8.3-24.33,12.1-37.87h0.66c3.79,13.42,7.78,24.85,12.1,37.87l7.07,20.36H402.52z"/>
<path class="st0" d="M198.85,269.47h-50.2V166.97h-7.62v109.12h57.82V269.47z"/>
<path class="st0" d="M618.38,312.41c0.01-0.06,0.01-0.13,0-0.19l-0.14-0.35l-0.16-0.19c-0.06-0.1-0.14-0.19-0.21-0.28l-0.22-0.17
	l-0.26-0.19l-27.45-15.79c-0.36-0.21-0.76-0.32-1.18-0.32c-0.41,0-0.82,0.11-1.18,0.32l-27.45,15.79c-0.09,0.05-0.17,0.11-0.24,0.19
	l-0.24,0.17c-0.07,0.09-0.13,0.18-0.19,0.28l-0.17,0.19c-0.06,0.11-0.11,0.23-0.14,0.35v0.19c-0.02,0.2-0.02,0.41,0,0.62v93.95
	c0.01,0.4,0.12,0.8,0.32,1.15c0.2,0.35,0.49,0.64,0.84,0.84l54.9,31.58l0.37,0.16h0.19c0.2,0.02,0.39,0.02,0.59,0h0.59h0.14
	l0.4-0.16l54.92-31.58c0.34-0.21,0.63-0.5,0.82-0.85c0.2-0.35,0.3-0.74,0.31-1.14v-29.99l26.32-15.15c0.34-0.2,0.63-0.49,0.83-0.83
	c0.2-0.34,0.32-0.73,0.33-1.13v-31.34c0.04-0.2,0.04-0.4,0-0.59c0,0,0,0,0-0.19l-0.14-0.35l-0.17-0.19c-0.06-0.1-0.13-0.2-0.21-0.28
	l-0.21-0.17l-0.26-0.19l-27.85-15.86c-0.35-0.22-0.76-0.34-1.18-0.34c-0.41,0-0.82,0.12-1.18,0.34l-27.45,15.79
	c-0.09,0.05-0.17,0.11-0.24,0.19l-0.24,0.17l-0.19,0.28c-0.07,0.05-0.12,0.12-0.17,0.19c-0.06,0.11-0.1,0.23-0.14,0.35
	c0,0,0,0,0,0.19c-0.02,0.2-0.02,0.4,0,0.59v30.01l-22.87,13.16v-58.56C618.52,312.85,618.46,312.62,618.38,312.41z M588.72,299.87
	l22.82,13.21l-22.87,13.14l-22.87-13.14L588.72,299.87z M613.9,316.98v57.35l-13.27,7.62l-9.62,5.54v-57.35l13.23-7.6L613.9,316.98z
	 M613.9,434.6l-50.34-28.95v-88.67l9.55,5.56l13.27,7.65v61.31c-0.01,0.09-0.01,0.17,0,0.26c-0.02,0.11-0.02,0.22,0,0.33v0.24
	c0,0,0,0.22,0.12,0.28c0.04,0.08,0.09,0.15,0.16,0.21c0.05,0.09,0.11,0.17,0.19,0.24l0.21,0.17l0.26,0.19l26.32,14.87L613.9,434.6z
	 M668.79,405.65l-50.41,28.95v-26.3l37.28-21.3l13.04-7.46L668.79,405.65z M696.19,358.54l-22.9,13.16v-26.04l13.28-7.65l9.62-5.52
	V358.54z M671.03,315.44l22.87,13.14l-22.87,13.16l-22.87-13.16L671.03,315.44z M645.87,332.55l9.6,5.52l13.28,7.65v26.04l-9.6-5.54
	l-13.28-7.62V332.55z M643.51,362.54l22.85,13.14l-16.77,9.47l-33.58,19.2l-22.82-12.92l23.98-13.78L643.51,362.54z"/>
<path class="st0" d="M472.73,351.79h-28.2v-24.31h22.99v-4.4h-22.99v-20.74h27.35v-4.4H439.6v58.25h33.13V351.79z"/>
<path class="st0" d="M312.99,356.19v-53.85h18.2v-4.4h-41.43v4.4h18.3v53.85H312.99z"/>
<path class="st0" d="M465.57,433.3l0.14,0.21h5.07v-60.74h-4.72v37.14c0,5.42,0.24,10.91,0.47,16.24l-6.25-10.94l-25.18-42.2
	l-0.12-0.24h-5.26v60.74h4.83v-37.59c0-5.4-0.24-10.46-0.5-15.79l6.27,10.94L465.57,433.3z"/>
<path class="st0" d="M505.94,433.51v-24.57l18.3-36.17h-5.31l-9.22,18.94c-1.58,3.43-3.3,6.7-5.12,10.15l-1.2,2.37
	c-2.15-4.14-4.03-8.1-6.04-12.29l-9.29-19.12h-5.49l18.27,36.17v24.57L505.94,433.51z"/>
<path class="st0" d="M228.66,302.35v-4.4H196.4v58.25h33.13v-4.4h-28.22v-24.31h22.99v-4.4h-22.99v-20.74H228.66z"/>
<path class="st0" d="M302.4,433.51h5v-60.74h-6.74l-12.57,35.51l-4.39,12.54l-17.12-47.98h-6.63v60.74h4.72v-39.76
	c0-4.12-0.19-9.19-0.35-13.68v-0.78l17.14,47.58h4.27l13.02-36.07l4.01-11.36c-0.21,4.33-0.45,9.8-0.45,14.2L302.4,433.51z"/>
<path class="st0" d="M374.65,328.62h22.99v-4.4h-22.99v-21.87h27.26v-4.4h-32.16v58.25h4.9V328.62z"/>
<path class="st0" d="M350.01,297.94h-4.93v58.25h4.93V297.94z"/>
<path class="st0" d="M419.88,297.94h-4.93v58.25h4.93V297.94z"/>
<path class="st0" d="M501.79,297.94h-13.68v58.25h13.77c16.84,0,26.51-10.7,26.51-29.33C528.39,308.24,518.93,297.94,501.79,297.94z
	 M501.36,351.89h-8.34v-49.71h8.34c14.15,0,21.93,8.73,21.93,24.62C523.29,342.68,515.49,351.89,501.36,351.89z"/>
<path class="st0" d="M381.97,413.01h23.06l7.08,20.5h5.42l-21.22-60.43l-0.12-0.31h-4.83l-21.48,60.74h5.24L381.97,413.01z
	 M383.56,408.54l3.61-10.56c2.48-7.1,4.43-13,6.39-19.81c1.65,5.73,3.37,10.84,5.19,16.24l4.72,14.2L383.56,408.54z"/>
<path class="st0" d="M165.64,434.59c3.49,0.05,6.94-0.71,10.09-2.22c3.15-1.5,5.91-3.72,8.07-6.47l0.26-0.3l-3.09-3.32l-0.33,0.38
	c-1.77,2.24-4.03,4.04-6.6,5.27c-2.57,1.23-5.39,1.86-8.23,1.83c-12.4,0-20.42-10.53-20.42-26.84c0-16.31,7.97-26.61,20.8-26.61
	c2.42,0.02,4.81,0.55,7.01,1.58c2.2,1.03,4.15,2.51,5.72,4.36l0.35,0.38l2.88-3.29l-0.26-0.31c-1.96-2.3-4.4-4.14-7.14-5.41
	c-2.74-1.27-5.72-1.93-8.73-1.93c-15.85,0-26.08,12.31-26.08,31.34C139.94,422.06,150.24,434.59,165.64,434.59z"/>
<path class="st0" d="M333.07,407.75h11.79c14.01,0,21.72-6.34,21.72-17.9c0-11.55-6.91-17.16-21.72-17.16h-16.81v60.74h5.02V407.75z
	 M333.07,377.17h10.61c12.85,0,17.64,3.43,17.64,12.69c0,9.25-5.45,13.44-17.64,13.44h-10.61V377.17z"/>
<path class="st0" d="M164.79,301.47c2.32,0.01,4.62,0.53,6.72,1.51c2.11,0.98,3.98,2.4,5.49,4.17l0.33,0.38l2.97-3.29l-0.26-0.31
	c-1.89-2.21-4.23-3.99-6.86-5.22c-2.63-1.23-5.5-1.87-8.4-1.88c-15.19,0-24.99,11.84-24.99,30.04c0,18.2,9.83,30.3,24.48,30.3
	c3.35,0.05,6.66-0.68,9.68-2.13c3.02-1.44,5.67-3.57,7.74-6.21l0.26-0.31l-2.97-3.2l-0.33,0.38c-1.68,2.15-3.83,3.89-6.28,5.09
	c-2.45,1.19-5.14,1.81-7.87,1.8c-11.79,0-19.57-10.08-19.57-25.73C144.94,311.23,152.51,301.47,164.79,301.47z"/>
<path class="st0" d="M218.12,434.59c15,0,25.07-12.73,25.07-31.67c0-18.94-10.07-31.24-25.07-31.24c-15,0-25.18,12.57-25.18,31.34
	C192.94,421.78,203.06,434.59,218.12,434.59z M218.12,376.41c12.03,0,19.78,10.41,19.78,26.51c0,16.1-7.95,26.94-19.78,26.94
	c-11.84,0-19.9-10.82-19.9-26.94C198.22,386.8,206.03,376.41,218.12,376.41z"/>
<path class="st0" d="M249.83,329.86h11.46l15.37,26.04l0.14,0.21h5.68l-15.82-26.72c9.17-1.49,14.43-7.27,14.43-15.93
	c0-10.34-6.51-15.6-19.36-15.6H244.9v58.25h4.93V329.86z M249.83,302.26h10.87c10.56,0,15.3,3.48,15.3,11.29
	c0,7.81-5.16,12.07-15.3,12.07h-10.87V302.26z"/>
</svg>
