<?xml version="1.0" encoding="UTF-8"?>
<svg id="Layer_1" xmlns="http://www.w3.org/2000/svg" version="1.1" viewBox="0 0 946 271">
  <!-- Generator: Adobe Illustrator 29.1.0, SVG Export Plug-In . SVG Version: 2.1.0 Build 142)  -->
  <defs>
    <style>
      .st0 {
        fill: #d2a80c;
      }

      .st1 {
        fill: #fff;
      }
    </style>
  </defs>
  <path class="st1" d="M243.1,115.2c-5.9-3.2-8.8-5.9-8.8-9.5s4.2-7.6,10.5-7.6,14.2,3.2,14.2,3.2l5.4-16.4s-4.9-3.9-19.3-3.9-34,11.5-34,27.6,6.4,16.1,15.2,21c7.1,3.9,9.5,6.8,9.5,11s-3.4,7.8-10,7.8c-9.5,0-18.8-4.9-18.8-4.9l-5.6,16.4s8.3,5.6,22.5,5.6c20.5,0,35.5-10,35.5-28.4s-7.6-16.9-16.4-22h.2Z"/>
  <path class="st1" d="M325,81c-10,0-18.1,4.9-24.2,12.2h-.2l8.8-46.2h-23l-22.3,117.2h23l7.6-40.1c2.9-15.2,10.8-24.5,18.1-24.5s7.1,3.4,7.1,8.6-.2,7.1-1,10l-8.6,46h23l9.1-47.5c1-4.9,1.7-11,1.7-14.9,0-13-6.8-20.8-18.8-20.8h-.2Z"/>
  <path class="st1" d="M395.7,81c-27.6,0-46,25-46,52.6s11,32,31.6,32,45.5-24.2,45.5-52.6-9.5-32-31.1-32ZM384.5,148c-7.8,0-11.3-6.6-11.3-14.9,0-13.2,6.8-34.5,19.3-34.5s10.8,7.1,10.8,13.7c0,14.2-6.8,35.7-18.8,35.7h0Z"/>
  <path class="st1" d="M485.5,81c-15.4,0-24.2,13.7-24.2,13.7h-.2l1.2-12.2h-20.3c-1,8.3-2.9,21-4.6,30.3l-15.9,83.9h23l6.4-34h.5s4.6,2.9,13.5,2.9c26.9,0,44.5-27.6,44.5-55.5s-6.8-29.4-23.5-29.4l-.2.2ZM463.7,148.3c-5.9,0-9.5-3.4-9.5-3.4l3.9-21.5c2.7-14.2,10-23.7,18.1-23.7s9.1,6.6,9.1,12.7c0,14.9-8.8,36-21.5,36h0Z"/>
  <path class="st1" d="M542,48c-7.3,0-13.2,5.9-13.2,13.2s4.4,11.5,10.8,11.5h.2c7.1,0,13.2-4.9,13.5-13.2,0-6.6-4.4-11.5-11.5-11.5h.2Z"/>
  <path class="st1" d="M509.7,163.9h23l15.7-81.2h-23l-15.4,81.2h-.2Z"/>
  <path class="st1" d="M606.8,82.5h-15.9l.7-3.9c1.2-7.8,5.9-14.7,13.7-14.7s7.3,1.2,7.3,1.2l4.4-17.9s-3.9-2-12.5-2-16.4,2.2-22.5,7.6c-7.8,6.6-11.5,16.4-13.2,25.9l-.7,3.9h-10.5l-3.4,17.4h10.8l-12.2,64.1h23l12.2-64.1h15.9l3.2-17.4-.2-.2Z"/>
  <path class="st1" d="M661.9,82.7s-14.4,36.2-20.8,55.8h-.2c-.5-6.4-5.6-55.8-5.6-55.8h-24.2l13.7,74.6c.2,1.7,0,2.7-.5,3.9-2.7,5.1-7.1,10-12.5,13.7-4.4,3.2-9.1,5.1-13,6.4l6.4,19.6c4.6-1,14.2-4.9,22.5-12.5,10.5-9.8,20.1-25,30.1-45.5l28.1-60.2h-24Z"/>
  <path class="st0" d="M716.9,165.6c-5.1,0-10.5-1.2-15.7-4.2-2.9-1.7-5.4-4.2-7.3-7.3,0,0,0-.5-.5-.2-.2,0,0,.2,0,.5-1.2,6.6-2.7,13.5-3.9,20.1-1.2,5.9-2.2,12-3.4,18.1-.5,2.4-2,3.9-4.4,4.4-2.2.5-4.2-1.5-3.7-3.7.7-4.6,1.7-9.3,2.7-13.9,1.5-7.8,2.9-15.7,4.4-23.5,1.7-8.6,3.2-16.9,4.9-25.4,1.5-8.1,3.2-16.1,4.6-24.2,1.2-6.1,2.4-12.2,3.4-18.3.5-2,1.7-3.2,3.4-3.9,2.2-.7,5.1.5,4.4,3.9-.5,2-.7,3.9-1.2,5.9v.5s.2,0,.5-.2c2.4-2.7,5.1-4.9,8.3-6.8,3.9-2.2,8.1-3.7,12.7-4.4,3.2-.5,6.1-.7,9.3-.5,4.6.2,9.3,1.2,13.5,3.2,3.7,1.7,6.4,4.4,8.6,7.6,2,2.9,3.2,6.1,3.9,9.8.7,4.4,1,8.8.5,13.2-.5,4.6-1.2,9.3-2.4,13.7-2,7.3-4.9,13.9-9.3,20.1-5.6,7.3-13,12.2-22,14.4-3.7,1-7.3,1.2-11.5,1.5h.2ZM754.1,110.8c0-2.2,0-5.6-1.2-9.1-1.7-5.4-5.1-9.1-10.5-10.8-4.9-1.7-10-2-15.4-1.5-4.4.5-8.6,2-12.2,4.6s-6.6,5.6-8.8,9.5c-2.4,4.4-4.4,8.8-5.6,13.7-1.7,6.4-2.9,13-2.7,19.8,0,3.2.5,6.1,1.5,9.1,2.2,6.6,7.1,10,13.7,11.3,4.4,1,8.8.7,13.2,0,5.9-1,10.8-3.7,14.9-7.8,2.9-2.9,4.9-6.4,6.6-10,2-4.2,3.2-8.6,4.2-13.2,1-4.6,1.7-9.3,2-15.4l.5-.2Z"/>
  <path class="st0" d="M912.3,82c5.6,0,10.5.7,15.2,2.7,3.9,1.7,7.1,4.2,9.8,7.8,1,1.2,1,2.4,0,3.9-.5,1-1.5,2-2.7,2.4-1.5.5-2.7.2-3.7-.7-1.5-1.5-2.9-2.9-4.6-4.2-2.9-2.2-6.1-3.2-9.8-3.7-3.9-.5-7.8-.5-11.7,0-3.2.5-6.1,2-8.8,3.9-2.9,2.4-4.4,5.4-5.1,9.1-.5,3.2.5,5.9,2.7,8.1s3.4,2.7,5.1,3.7c4.4,2.4,9.3,3.9,13.9,5.9,4.2,1.7,8.6,3.4,12.2,6.4,2.7,2.2,4.9,4.9,5.9,8.6.5,2.2.5,4.2,0,6.4-.7,4.6-2.4,8.8-5.6,12.5s-6.8,6.1-11.5,7.8c-3.7,1.5-7.3,2.2-11.3,2.7-3.2.5-6.4.5-9.5,0-5.4-.5-10.3-2-14.9-4.6-2.9-1.7-5.4-3.7-7.1-6.4-.7-1-1.2-2-1-3.2.5-2,2.4-3.7,4.2-3.7s1.7.2,2.2,1c.7,1,1.5,2,2.4,2.9,2.9,2.9,6.6,4.9,10.8,5.9,2.9.7,5.9,1,8.8,1s7.8-.2,11.5-1.5c3.9-1.2,7.3-3.2,9.8-6.4,2-2.4,2.9-5.1,3.2-8.1.5-3.4-1-6.1-3.7-8.3s-5.9-3.9-9.3-5.4c-4.2-1.7-8.6-3.2-13-5.1-3.4-1.5-6.8-3.2-9.5-5.9-3.9-3.7-5.6-8.1-5.1-13.2.5-5.4,2.7-10.3,6.6-13.9,3.2-3.2,7.1-5.1,11.5-6.6,3.9-1,7.8-1.7,11-1.7h1.2Z"/>
  <path class="st0" d="M825.3,157.8c4.2,0,7.3,0,10.5-1,6.4-1.7,11.3-5.6,14.4-11.5,2-3.9,3.2-8.1,3.9-12.2l2.9-15.2,3.9-20.1c0-1,.2-2,.5-2.9.5-2.2,2.2-3.9,4.4-4.2,2.4,0,4.2,1.7,3.9,4.2-.7,3.9-1.5,8.1-2.4,12-1.2,6.6-2.4,13.2-3.9,19.8-1,4.4-1.5,8.8-2.9,13.2-1.7,6.1-4.4,11.7-9.3,16.1-4.2,3.9-9.1,6.4-14.4,7.8-2.4.7-5.1,1-7.6,1.2-3.4.5-6.8.5-10.5,0-3.2-.2-6.4-1-9.3-2-6.8-2.4-11.3-7.3-12.5-14.4-.7-4.2-.5-8.6.2-12.7,1.5-8.1,3.2-16.4,4.6-24.5,1.5-7.8,3.2-15.9,4.6-23.7.5-2.2,2.2-3.9,4.4-4.4,2.4-.5,4.2,1.5,3.9,3.9-1,5.1-2,10.3-2.9,15.4-1.7,8.3-3.2,16.6-4.9,25-.7,3.7-1.5,7.6-2,11.3-.5,3.9-.2,7.6,1.5,11.3,1,2.2,2.7,3.7,4.9,5.1,2.7,1.7,5.9,2.4,9.1,2.7h4.9v-.2Z"/>
  <path class="st0" d="M767.8,160.7c0-1.2.5-2.7.7-4.2,1.2-5.9,2.2-12,3.4-17.9,1.2-6.1,2.4-12.2,3.4-18.1,1.2-6.8,2.7-13.7,3.9-20.5,1.5-7.6,2.9-14.9,4.4-22.5,1.2-6.4,2.4-12.5,3.7-18.8.5-2,.7-3.7,1.2-5.6.5-2.2,2.4-3.9,4.4-3.9s3.9,1.7,3.4,3.9c-.5,3.2-1.2,6.1-1.7,9.3-1.5,7.8-2.9,15.4-4.4,23.2-1.2,6.6-2.4,13.2-3.9,19.8-1.5,7.8-2.9,15.4-4.4,23.2l-3.4,17.1c-1,4.9-2,9.5-2.7,14.4-.5,2.2-2.2,3.7-4.4,4.2-2,.2-3.7-1.2-3.7-3.4v-.2Z"/>
  <path class="st0" d="M863.7,61.2h4.2q.5,0,.7-.5c.5-2.7,1-5.1,1.5-7.8.5-2.2,2.2-3.7,4.2-4.2,2.4-.5,4.2,1.5,3.9,3.7-.5,2.7-1,5.1-1.5,7.8q0,.7.7.7h7.6c2,0,3.4,1.2,3.4,3.2s-1,3.2-2.4,3.9c-1,.7-2,.7-3.2.7h-7.1c-.5,0-.7,0-1,.7-.5,2.7-1,5.4-1.5,7.8-.5,2.2-2.7,3.9-4.9,3.7-2,0-3.4-1.7-2.9-3.7.5-2.4,1-5.1,1.5-7.6h0c0-1.2.2-1.2-1-1.2h-7.3c-1.2,0-2.4-.5-2.9-2-.5-1.2-.2-2.7.5-3.7,1.2-1.5,2.7-2.4,4.6-2.2h3.4l-.5.5Z"/>
  <path class="st1" d="M681.4,223.1c1-.7,1.7-1.7,2.7-2.4,2.9-2.4,6.1-4.4,10-4.6,6.8-.7,13,2.9,14.9,9.8,1.2,3.9.7,7.8-.2,11.7-1,3.2-2.4,6.4-4.9,8.8-4.4,4.6-9.8,7.1-16.4,6.4-5.4-.7-9.1-3.9-11-8.8,0,0,0-.5-.2-.5s-.2.2-.2.5c-1,3.2-1.7,6.6-2.7,9.8-.7,2.4-1.5,5.1-2.2,7.6s-.5,1.7-1.5,2c-1.2.2-2-.5-1.7-1.5.5-1.7.7-3.4,1.2-4.9,2.9-10.8,5.6-21.5,8.6-32.3.5-1.7,1-3.7,1.5-5.4,0-.5.2-1,.7-1.5.5-.5,1.2-1,2-.7.7.2,1,1,.7,1.7,0,1.5-.7,2.7-1.2,4.2v.7h0v-.5ZM706.1,231.2c0-1.5,0-2.7-.2-3.9-1-5.1-5.4-8.8-10.8-8.6-3.4,0-6.6,1.2-9.3,3.4-4.4,3.4-7.3,7.8-8.1,13.7-.7,6.6,3.4,12.5,10.3,13.2,5.6.7,10.3-1.5,13.7-5.9,2.9-3.4,4.2-7.6,4.2-12h.2Z"/>
  <path class="st1" d="M870.3,235.1h-13.2c-.2,0-.5,0-.5.5-.2,3.4,0,6.8,2.4,9.5,2.2,2.7,4.9,3.9,8.1,3.9s7.8-.7,11.3-3.2c.5-.2,1-.7,1.5-1,.7-.2,1.2,0,1.7.2.5.5.5,1,0,1.7,0,0-.2.5-.5.5-3.4,2.7-7.1,4.4-11.5,4.6-3.4,0-6.6,0-9.5-2-4.2-2.2-6.6-5.9-7.1-10.8-.7-5.9,1.2-11.3,4.9-15.9,2.9-3.9,6.8-6.6,11.5-7.6,3.9-.7,7.8-.5,11.3,1.7,3.4,2.2,5.1,5.6,5.6,9.8,0,1.7,0,3.7-.2,5.4s-1,2.2-2.4,2.2h-13l-.2.2ZM869.8,232.2h12c.5,0,.7,0,.7-.5v-4.9c-.7-3.4-2.4-6.4-5.9-7.3-4.4-1.2-8.3-.5-12,2s-5.9,5.9-7.3,10.3c0,.5,0,.7.5.7h12v-.2Z"/>
  <path class="st1" d="M731.8,229.7c3.7,0,7.3.7,10.8,1.5.5,0,1.2.2,1.7.5s.5,0,.5-.2c.7-2.7,1-5.1,0-7.6-1.2-2.4-3.4-3.7-5.9-4.4-4.2-.7-8.1-.5-12,.7-.5,0-1,.2-1.5.2-.7,0-1,0-1.2-.7s0-1.2.2-1.7c.2-.2.7-.5,1-.5,2.9-.7,6.1-1.7,9.3-1.7s4.9.2,7.3,1.2c4.6,1.7,7.1,5.6,6.6,10.8,0,2.9-1.2,5.9-2,8.8-1.2,4.2-2.2,8.6-3.4,12.7,0,.5-.2,1-.5,1.5-.5.7-1.2,1.2-2,1s-1-1-.7-2c.2-1.2.5-2.2,1-3.4v-.7h-.2c-1.5,1.7-3.2,3.2-5.1,4.2-4.6,2.7-9.8,3.2-14.7,1-3.9-1.7-5.9-5.6-5.1-10,.7-4.9,3.7-7.8,8.1-9.8,2.7-1,5.4-1.5,8.1-1.5l-.2.2ZM731.8,232.9c-2,0-3.7,0-5.6.5-3.9,1.2-7.3,4.2-7.1,9.1,0,2.7,1.5,4.6,3.9,5.9s5.1,1,7.6.5c4.6-1,8.3-3.4,10.8-7.3,1.2-2,2-4.2,2.4-6.6,0-.5,0-.7-.5-.7-3.9-1-7.8-1.5-11.7-1.5l.2.2Z"/>
  <path class="st1" d="M844.8,226.5c0,2.4-.7,4.9-1.2,7.3-1.5,5.1-2.7,10.3-4.2,15.2,0,.5-.2,1-.5,1.5-.5.7-1.2,1.2-2,1s-1-1-.7-2c.5-2.2,1.2-4.4,1.7-6.6,1.2-4.4,2.4-8.8,3.4-13.2.5-2,.5-3.9,0-5.6-.7-2.7-2.9-5.1-6.8-5.6-4.2-.5-7.6,1-10.8,3.7-3.4,2.9-5.1,6.8-6.1,11s-2.2,8.3-3.2,12.5c-.2,1.2-.7,2.7-1.2,3.9,0,.7-.5,1.2-1,1.5s-1,.5-1.7,0c-.5-.5-.7-1-.5-1.5.2-1,.5-2.2.7-3.2,2.4-9.1,4.9-17.9,7.1-26.9,0-.7.2-1.5.5-2,0-.5.5-1.2,1.2-1.5.5,0,1-.2,1.5,0,.5.2.7.7.5,1.5,0,1.2-.7,2.7-1,3.9,0,.2-.5.7,0,1,0,0,.5-.2.7-.5,1.7-2,3.7-3.7,6.1-4.9,3.9-2,7.8-2.2,12-.2,3.7,1.7,5.6,4.9,5.9,9.1v.7h-.5Z"/>
  <path class="st1" d="M801.5,216.5h5.6c.5,0,1,.7,1,1.5s-.5,1.2-1,1.5h-10.8q-1,0-1.2,1c-2,7.1-3.7,14.2-5.6,21.3-.5,1.5-.5,2.7,0,4.2,0,1,.7,1.7,1.7,2.2,1.7,1,3.4,1,5.4.7.5,0,1.2,0,1.7-.2.7,0,1.2,0,1.5.7,0,.5,0,1.2-.5,1.7-.7.5-1.5.7-2.2.7-2.7.5-5.4.5-7.8-1-2.4-1.2-3.4-3.4-3.4-6.1s.7-4.4,1.5-6.6c1.5-6.1,3.2-12,4.9-18.1,0-.5,0-.7-.5-.7h-2.7c-1,0-1.5-.7-1.5-1.5s.5-1.5,1.5-1.5h3.7c.5,0,.7,0,.7-.5.7-2.7,1.5-5.4,2.2-8.1,0-.7.2-1.5.7-2,.2-.5,1-.7,1.5-.7.7,0,1.2.5,1.2,1.2v1.2c-.7,2.7-1.5,5.6-2.2,8.3,0,.5,0,.7.5.7h4.6-.5Z"/>
  <path class="st1" d="M755,250.3c0-1.2.5-2.2.7-3.4,2.4-9.1,4.9-18.1,7.1-27.2,0-.7.2-1.5.5-2,0-.7.5-1.2,1.2-1.5,1-.5,2.2.5,2,1.5,0,1.2-.5,2.4-1,3.7-.2,1.5-.7,2.7-1,4.2v.5s.2,0,.5-.2c2.4-3.4,5.4-6.1,9.3-8.1,2-1,3.9-1.7,6.1-1.7s1.7.5,2,1.5c0,1-.2,1.7-1.5,2-.7.2-1.7.5-2.4.5-4.4.7-8.1,3.2-11,6.4-2.7,2.9-4.4,6.6-5.6,10.5-1.2,4.2-2.2,8.3-3.4,12.7,0,.5-.2,1.2-.7,1.7s-1.2.7-1.7.5c-.5,0-.7-.7-.7-1.5h-.2Z"/>
  <path class="st1" d="M903.3,217.7c-.2,1-.5,2.2-1,3.4-.5,1.5-.7,2.7-1.2,4.2v.5s.2,0,.5-.2c2.4-3.4,5.4-6.1,9.3-8.1,2-1,3.9-1.7,6.1-1.7s1.7.5,2,1.5c0,1-.2,1.7-1.2,2-.7.2-1.5.5-2.4.5-3.4.5-6.6,2-9.1,4.4-3.7,3.2-6.1,7.1-7.6,11.7-1.5,4.4-2.4,9.1-3.7,13.5,0,.5-.2,1.2-.7,1.7s-1.2.7-2,.5c-.5-.2-1-1-.7-1.7,1-3.7,2-7.1,2.7-10.8,1.7-6.8,3.7-13.7,5.4-20.5,0-.5.2-1.2.7-1.7s1.2-1,2-.7c.5,0,1,.7,1,1.5v.2Z"/>
  <path class="st1" d="M121,30.9s-2.2.7-5.6,1.7c-.5-2-1.5-4.2-2.7-6.6-3.9-7.6-9.8-11.7-16.9-11.7h-1.5c0-.2-.5-.5-.7-.7-3.2-3.2-7.1-4.9-11.7-4.6-9.1.2-18.1,6.8-25.4,18.6-5.1,8.3-9.1,18.6-10.3,26.7-10.5,3.2-17.9,5.6-17.9,5.6q-5.4,1.7-6.1,6.8c-.5,3.7-14.2,110.8-14.2,110.8l114.5,19.8V30.6h-1.5v.2ZM94.6,39.2c-6.1,2-12.7,3.9-19.3,6.1,2-7.1,5.4-14.2,9.8-19.1,1.7-1.7,3.9-3.7,6.6-4.9,2.4,5.4,3.2,12.7,2.9,17.9h0ZM82.1,15c2.2,0,3.9.5,5.4,1.5-2.4,1.2-4.9,3.2-7.1,5.6-5.9,6.1-10.3,15.9-12,25.2-5.6,1.7-11,3.4-15.9,4.9,3.2-14.7,15.4-36.7,29.4-37.2h.2ZM64.5,98.6c.7,9.8,26.2,12,27.6,34.7,1.2,18.1-9.5,30.3-25,31.3-18.3,1.2-28.6-9.8-28.6-9.8l3.9-16.6s10.3,7.8,18.3,7.1c5.4-.2,7.3-4.6,7.1-7.8-.7-12.7-21.5-12-23-33-1.2-17.6,10.5-35.5,36-37.2,9.8-.7,14.9,2,14.9,2l-5.9,21.8s-6.6-2.9-14.2-2.4c-11.3.7-11.5,7.8-11.3,9.5v.5ZM100.5,37.2c0-4.6-.7-11-2.7-16.6,6.8,1.2,10.3,9.1,11.7,13.9-2.7.7-5.6,1.7-9.1,2.7h0Z"/>
  <path class="st1" d="M126.2,196.7l47.5-11.7s-20.5-138.7-20.5-139.7-1-1.5-1.7-1.5-13.9-.2-13.9-.2c0,0-8.1-7.8-11.3-11v164.4-.2Z"/>
</svg>