<?xml version="1.0" encoding="UTF-8" standalone="no"?>
<!DOCTYPE svg PUBLIC "-//W3C//DTD SVG 1.1//EN" "http://www.w3.org/Graphics/SVG/1.1/DTD/svg11.dtd">
<svg width="1914" height="576" viewBox="0 0 1914 576" version="1.1" xmlns="http://www.w3.org/2000/svg" xmlns:xlink="http://www.w3.org/1999/xlink" xml:space="preserve" xmlns:serif="http://www.serif.com/" style="fill-rule:evenodd;clip-rule:evenodd;stroke-linejoin:round;stroke-miterlimit:2;">
    <g transform="matrix(1,0,0,1,-283.621494,-1466.375786)">
        <g id="Logo-dinkbit.png" serif:id="Logo dinkbit.png" transform="matrix(3.422182,0,0,3.422182,276.813115,1459.629316)">
            <path d="M358.5,2.034C361.223,1.972 365.154,1.858 366.426,2.632C366.521,2.69 366.434,2.797 367.506,3.494C369.16,4.569 368.946,5.053 368.946,31.5C368.946,71.383 368.943,71.375 368.962,71.451C369.373,73.112 369.776,72.971 371.486,72.997C372.528,73.013 372.507,72.958 384.509,73.087C389.581,73.142 389.567,73.297 394.534,74.337C395.837,74.61 400.074,76.183 400.55,76.359C400.854,76.472 403.039,77.283 404.292,77.9C404.436,77.971 404.5,78.154 404.637,78.238C405.376,78.687 405.471,78.467 406.17,78.954C406.333,79.068 406.418,79.27 406.576,79.39C406.942,79.665 408,80.114 410.303,81.799C414.656,84.985 414.499,85.162 417.635,88.37C417.714,88.451 417.704,88.455 418.615,89.391C419.119,89.909 419.094,89.909 419.585,90.423C419.884,90.736 420.005,90.616 420.517,91.486C421.295,92.808 421.807,93.274 422.148,93.74C422.912,94.785 422.948,94.755 423.007,94.85C423.285,95.301 423.247,95.318 426.136,100.68C426.529,101.411 428.489,106.637 428.659,107.464C428.976,109.014 428.947,109.002 429.431,110.522C429.602,111.06 429.403,111.089 430.506,117.499C431.075,120.806 430.297,124.794 430.176,125.417C429.935,126.652 429.685,130.109 429.83,130.409C429.912,130.577 430.207,130.517 430.335,130.653C430.48,130.805 430.419,131.119 430.602,131.224C430.912,131.403 436.46,131.366 437.361,131.06C442.849,129.196 443.187,124.245 443.239,123.479C443.575,118.544 442.991,92.984 443.586,90.524C444.901,85.082 445.261,85.202 446.035,84.18C446.203,83.959 446.296,83.689 446.443,83.452C447.055,82.464 448.631,81.06 448.841,80.873C449.028,80.707 449.278,80.623 449.467,80.459C449.623,80.326 449.692,80.1 449.865,79.991C450.337,79.695 450.887,79.545 451.369,79.266C451.41,79.242 451.492,78.864 453.432,78.29C455.445,77.695 455.359,77.397 457.461,77.17C461.01,76.788 460.944,76.352 464.499,76.318C473.787,76.229 491.435,76.538 492.243,76.089C493.108,75.608 492.982,75.311 492.982,57.5C492.982,6.943 492.935,6.916 493.33,5.448C493.632,4.328 493.873,4.466 494.487,3.488C495.536,1.819 496.026,2.033 518.5,2.034C520.433,2.034 524.763,1.357 526.569,4.447C528.167,7.181 527.765,7.337 527.772,10.5C527.819,31.533 527.646,74.822 527.892,75.361C527.965,75.52 528.198,75.542 528.319,75.668C528.687,76.053 528.604,76.257 529.52,76.308C532.209,76.46 552.97,75.993 555.473,76.592C556.205,76.767 558.356,77.524 558.454,77.583C558.55,77.64 558.467,77.717 559.548,78.453C561.349,79.681 560.857,81.297 560.921,104.498C560.935,109.43 561.568,111.362 557.667,112.926C555.314,113.869 555.237,113.753 538.5,113.753C530.715,113.753 528.976,113.721 528.642,113.881C528.479,113.959 528.46,114.199 528.331,114.326C528.197,114.458 527.949,114.478 527.864,114.647C527.717,114.938 527.611,119.5 528.183,121.598C529.376,125.979 530.073,125.796 530.107,125.836C530.272,126.031 530.346,126.295 530.522,126.48C530.683,126.651 530.948,126.703 531.098,126.883C531.407,127.251 531.555,127.738 531.874,128.098C532.04,128.284 532.332,128.314 532.518,128.48C532.679,128.625 532.72,128.881 532.893,129.01C533.33,129.336 533.851,129.531 534.312,129.82C537.02,131.516 538.057,130.995 540.48,131.572C545.225,132.701 556.082,131.322 558.417,132.658C558.512,132.713 558.437,132.807 559.505,133.495C561.407,134.719 560.867,137.763 560.942,158.497C560.958,162.941 561.852,167.166 556.558,167.869C553.027,168.338 553.064,168.561 549.5,168.564C549.49,168.564 542.066,168.564 541.5,168.566C539.002,168.576 539.01,168.697 536.561,168.246C532.703,167.536 532.604,168.263 528.609,167.153C525.941,166.412 524.513,166.456 521.337,164.878C519.506,163.968 519.361,164.323 517.583,163.336C516.985,163.004 517.047,162.94 516.425,162.618C515.465,162.122 515.448,161.98 515.287,161.893C512.642,160.476 512.64,160.482 512.552,160.419C512.391,160.304 512.318,160.092 512.161,159.971C511.267,159.279 511.217,159.381 510.387,158.63C509.407,157.744 508.407,156.979 508.229,156.843C508.019,156.683 507.742,156.621 507.545,156.446C507.372,156.291 507.313,156.034 507.143,155.875C506.605,155.374 506.421,155.651 505.949,155.108C505.794,154.93 506.12,154.722 504.332,152.644C503.069,151.177 502.99,151.287 502.882,151.161C502.717,150.969 502.636,150.715 502.471,150.523C502.005,149.981 501.959,150.036 501.645,149.407C501.369,148.855 500.061,146.84 499.465,145.518C498.95,144.38 497.873,142.439 497.492,141.504C496.888,140.023 496.726,140.102 496.301,138.559C495.747,136.556 495.613,136.606 495.151,134.568C495.035,134.06 494.372,132.013 494.289,131.54C494.016,129.976 494.073,129.98 493.632,128.46C492.726,125.336 493.795,125.188 492.6,119.475C492.255,117.821 492.388,115.049 492.168,114.643C492.073,114.469 491.815,114.453 491.672,114.317C491.542,114.193 491.527,113.951 491.364,113.875C490.905,113.659 479.75,113.746 479.584,113.809C479.427,113.869 479.418,114.112 479.286,114.218C478.974,114.468 478.522,114.347 478.443,115.493C478.368,116.588 478.58,143.025 478.319,145.478C477.676,151.542 478.369,156.634 476.315,160.408C476.237,160.552 476.065,160.625 475.978,160.763C475.376,161.724 475.445,161.752 474.803,162.699C473.8,164.18 473.746,164.135 472.295,165.191C470.119,166.776 470.014,166.564 467.486,167.46C466.169,167.927 464.286,167.785 462.42,168.151C460.045,168.618 460.021,168.564 418.5,168.564C323.457,168.564 323.447,168.608 322.509,168.449C319.987,168.022 320.011,167.995 317.472,167.801C315.119,167.621 305.959,164.947 302.675,163.151C298.376,160.8 298.263,161.002 295.709,159.176C291.566,156.212 291.77,155.923 291.349,155.787C291.226,155.748 289.856,155.795 289.792,155.835C289.683,155.904 289.799,155.96 289.069,157.274C288.734,157.874 288.7,157.839 288.447,158.474C288.192,159.112 288.129,159.058 287.759,159.644C287.605,159.889 287.549,160.19 287.385,160.429C287.278,160.587 287.074,160.66 286.961,160.813C286.794,161.037 286.702,161.308 286.556,161.545C286.164,162.187 283.848,164.377 283.601,164.611C283.389,164.811 282.167,165.967 280.551,166.613C278.904,167.272 278.988,167.653 274.443,168.101C272.855,168.258 272.862,168.031 254.5,168.031C226.355,168.031 226.268,168.156 223.643,167.144C220.667,165.998 219.514,164.939 219.307,164.803C215.736,162.455 216.136,162.03 215.219,160.687C215.141,160.574 213.194,158.512 212.29,155.572C211.818,154.038 211.633,154.115 211.228,152.576C210.693,150.543 210.402,150.621 210.178,148.538C209.849,145.483 209.327,145.566 209.258,142.507C209.094,135.184 209.486,103.88 209.006,102.667C208.605,101.654 206.534,99.578 205.634,99.211C203.307,98.264 198.922,98.848 198.65,98.949C197.434,99.401 196.553,100.244 196.398,100.392C195.946,100.825 195.87,100.743 195.492,101.495C195.158,102.161 193.997,103.711 193.89,106.506C193.584,114.564 194.728,131.63 193.126,138.398C192.546,140.848 192.866,140.895 192.113,143.375C189.758,151.138 189.2,150.898 187.492,154.496C186.9,155.743 184.805,158.465 184.147,159.164C183.654,159.687 183.654,159.662 180.575,162.583C180.199,162.941 180.298,163.046 179.498,163.497C177.905,164.396 178.109,164.699 176.481,165.467C174.291,166.502 173.511,167.175 171.568,167.723C169.561,168.289 169.614,168.426 167.566,168.862C164.797,169.451 164.846,169.795 160.518,169.909C147.913,170.241 147.81,169.635 143.454,168.715C139.907,167.966 134.103,164.802 133.551,164.419C133.391,164.308 133.317,164.102 133.162,163.984C133.16,163.984 133.121,164.083 130.71,162.202C129.225,161.042 129.291,160.983 129.163,160.884C128.772,160.58 128.276,160.427 127.9,160.106C127.715,159.948 127.684,159.662 127.518,159.483C127.366,159.32 127.112,159.273 126.968,159.103C126.857,158.971 127.055,158.866 125.81,157.279C125.701,157.14 124.541,155.661 124.441,155.548C124.3,155.391 124.064,155.324 123.949,155.146C123.638,154.664 119.925,147.438 119.869,147.327C119.779,147.148 117.383,139.946 117.306,139.539C116.608,135.805 116.43,135.848 116.37,135.523C115.988,133.471 116.322,133.435 115.85,131.405C114.121,123.98 116.254,119.309 114.19,114.636C114.147,114.539 114.05,114.608 113.544,113.476C112.589,111.34 110.645,110.422 110.58,110.375C108.358,108.779 108.285,108.496 100.501,108.56C100.066,108.564 97.933,108.26 97.867,110.524C97.662,117.507 98.443,125.36 97.163,130.401C96.548,132.821 96.933,132.888 96.136,135.374C95.982,135.853 94.433,140.68 94.111,141.319C93.808,141.92 93.746,141.873 93.491,142.495C93.235,143.117 93.151,143.06 92.841,143.669C92.816,143.717 92.506,144.94 90.194,148.312C89.575,149.215 89.752,149.303 89.084,150.168C89.014,150.258 88.989,150.205 88.168,151.264C87.736,151.82 87.791,151.844 87.36,152.404C87.235,152.567 87.021,152.645 86.895,152.807C86.731,153.017 86.678,153.302 86.502,153.502C86.351,153.674 86.093,153.727 85.938,153.896C85.767,154.081 85.716,154.357 85.543,154.541C85.382,154.711 85.122,154.765 84.959,154.933C84.786,155.11 84.726,155.376 84.555,155.553C84.061,156.064 83.974,155.966 83.559,156.559C82.991,157.37 82.864,157.238 82.548,157.55C82.381,157.716 82.31,157.964 82.14,158.127C81.963,158.296 81.704,158.361 81.526,158.528C81.364,158.68 81.317,158.941 81.136,159.07C80.254,159.693 80.169,159.536 79.293,160.193C79.152,160.299 77.839,161.284 77.539,161.548C77.381,161.687 77.315,161.921 77.139,162.035C76.874,162.206 68.411,166.779 66.468,167.42C63.07,168.539 61.922,168.639 59.465,169.388C58.17,169.782 45.435,170.78 39.606,169.164C39.534,169.144 36.038,168.447 32.639,167.153C31.171,166.594 31.143,166.709 29.695,166.079C29.56,166.02 29.503,165.845 29.371,165.78C29.215,165.704 28.281,165.615 24.688,163.189C23.189,162.177 23.152,162.265 21.701,161.197C17.816,158.337 17.938,158.218 15.371,155.627C15.095,155.348 11.94,152.163 11.928,152.146C11.313,151.254 11.451,151.18 10.803,150.299C10.017,149.231 7.647,145.58 7.586,145.449C7.46,145.183 7.376,144.896 7.224,144.644C7.141,144.507 6.964,144.44 6.892,144.297C6.625,143.76 6.482,143.168 6.219,142.629C6.155,142.497 5.98,142.44 5.921,142.305C5.791,142.007 5.894,141.973 4.529,138.489C4.437,138.253 4.507,138.232 3.542,135.485C3.433,135.174 3.527,135.155 2.561,131.481C1.847,128.764 1.739,115.855 2.6,112.531C4.073,106.847 4.023,106.84 6.262,101.404C6.383,101.111 7.413,98.609 7.954,97.827C8.066,97.665 8.265,97.578 8.384,97.42C8.47,97.305 10.922,92.951 12.845,90.814C14.119,89.397 14.121,89.405 14.205,89.286C14.363,89.065 14.438,88.789 14.609,88.578C14.744,88.411 14.973,88.337 15.11,88.171C15.275,87.972 15.324,87.689 15.5,87.5C15.664,87.326 15.947,87.291 16.104,87.11C16.418,86.747 16.567,86.259 16.885,85.899C17.048,85.715 17.333,85.682 17.514,85.515C17.678,85.364 17.727,85.11 17.897,84.966C18.029,84.854 18.148,85.043 19.715,83.798C19.853,83.688 21.123,82.679 21.42,82.408C22.766,81.172 22.956,81.467 24.39,80.351C26.43,78.764 26.583,79.039 28.26,78.055C28.599,77.855 28.599,77.858 32.665,75.857C32.957,75.714 32.99,75.815 36.511,74.531C36.749,74.444 36.773,74.531 39.554,73.668C41.592,73.037 43.509,73.289 45.585,72.849C51.171,71.665 61.233,72.835 62.367,72.198C62.546,72.097 62.554,71.825 62.694,71.675C62.814,71.546 63.059,71.538 63.132,71.377C63.429,70.722 63.037,9.433 63.348,7.477C63.658,5.531 65.281,2.373 69.491,2.235C70.257,2.21 90.894,2.206 91.509,2.236C94.436,2.379 95.492,3.659 95.914,4.055C96.034,4.168 96.879,4.96 97.24,5.631C97.952,6.957 97.865,7.054 97.865,43.5C97.865,74.987 97.848,75.003 97.98,75.343C98.035,75.486 98.221,75.534 98.325,75.645C98.984,76.349 99.06,76.307 100.502,76.315C114.661,76.392 130.757,76.065 133.468,76.626C138.195,77.604 138.49,76.727 142.698,79.114C145.203,80.536 145.15,80.619 147.574,83.443C148.627,84.671 148.36,84.81 148.946,86.331C149.922,88.862 149.774,88.887 150.45,91.515C151.506,95.616 150.25,127.689 151.197,130.6C151.88,132.697 152.29,132.991 153.142,133.855C153.272,133.987 154.168,135.677 157.477,135.325C159.055,135.156 159.82,133.931 159.88,133.87C160.041,133.703 160.288,133.63 160.436,133.451C161.973,131.586 162.095,128.905 162.114,128.486C162.27,125.049 161.799,101.923 162.506,98.501C162.921,96.492 162.98,96.52 163.214,94.466C163.261,94.058 163.338,93.385 164.395,89.472C164.941,87.454 165.25,87.152 166.338,84.439C166.931,82.961 166.883,82.956 167.725,81.629C170.394,77.423 170.262,77.306 173.825,73.831C176.88,70.851 176.977,70.961 180.681,68.847C180.836,68.759 180.86,68.814 182.672,67.852C183.488,67.419 183.544,67.585 184.364,67.174C186.372,66.17 186.471,66.48 188.609,65.815C191.035,65.061 191.088,65.309 193.53,64.603C195.9,63.918 209.654,63.838 212.482,64.56C215.028,65.211 218.366,65.749 221.314,66.941C221.44,66.992 221.502,67.145 221.623,67.206C222.444,67.618 222.504,67.428 223.316,67.87C228.33,70.597 229.486,71.926 229.769,72.131C229.988,72.29 230.273,72.35 230.481,72.524C230.653,72.669 230.716,72.915 230.884,73.065C231.074,73.234 231.351,73.287 231.536,73.462C231.709,73.626 231.761,73.892 231.931,74.059C232.45,74.569 232.616,74.332 233.13,74.862C233.299,75.036 233.364,75.294 233.531,75.472C233.683,75.634 233.942,75.682 234.071,75.864C234.7,76.747 234.542,76.827 235.201,77.703C235.374,77.933 236.064,78.85 237.282,80.634C238.177,81.946 238.37,82.369 238.444,82.531C238.909,83.55 239.043,83.469 239.463,84.518C239.576,84.801 239.649,85.101 239.792,85.37C239.859,85.497 240.025,85.557 240.081,85.689C240.209,85.988 240.111,86.02 241.449,89.519C241.539,89.755 241.462,89.778 242.394,92.536C242.808,93.76 242.688,94.771 243.174,96.599C244.466,101.461 243.42,101.596 244.155,105.575C244.696,108.509 244.055,108.512 244.036,111.496C244.026,113.015 243.919,129.941 243.977,130.476C244.183,132.382 244.453,132.321 244.793,134.449C245.615,139.587 251.338,142.011 254.319,138.351C255.028,137.481 256.088,134.587 256.234,132.479C256.578,127.528 256.211,10.443 256.433,8.493C256.558,7.4 257.56,3.022 261.474,2.345C263.385,2.015 281.741,2.206 283.503,2.224C287.002,2.26 287.728,3.081 288.809,4.206C288.962,4.366 289.191,4.447 289.325,4.622C290.99,6.795 290.708,9.023 290.708,19.5C290.708,94.816 290.711,94.804 290.679,95.496C290.614,96.9 290.033,97.515 291.441,97.673C292.606,97.804 293.248,97.052 294.525,96.553C295.999,95.978 295.93,95.846 297.438,95.335C300.091,94.436 305.002,91.516 308.44,90.342C310.381,89.68 311.1,89.077 312.497,88.494C313.128,88.231 313.072,88.157 313.679,87.866C314.223,87.606 314.815,87.453 315.357,87.189C315.491,87.124 315.552,86.952 315.687,86.889C316.237,86.633 316.838,86.497 317.388,86.241C317.515,86.182 317.569,86.012 317.698,85.956C318.919,85.423 318.997,85.675 320.646,84.826C320.934,84.678 320.983,84.803 324.341,83.159C324.475,83.094 324.547,82.934 324.681,82.869C325.117,82.661 332.901,79.343 333.25,79.113C334.401,78.35 334.221,78.029 334.221,64.5C334.221,7.486 334.196,7.477 334.415,6.481C334.639,5.458 334.879,5.579 335.017,5.246C335.069,5.122 334.935,4.964 334.996,4.844C335.117,4.604 336.277,3.498 336.394,3.386C337.948,1.904 338.924,2.037 343.5,2.034C348.5,2.034 353.5,2.034 358.5,2.034ZM50.493,136.032C45.101,135.058 43.855,134.938 40.15,130.816C39.476,130.065 38.226,129.436 37.347,123.526C37.052,121.541 38.213,117.693 38.787,116.635C38.86,116.5 39.027,116.434 39.103,116.301C39.673,115.302 39.496,115.216 40.181,114.29C44.643,108.256 48.682,108.65 50.502,108.589C51.381,108.56 57.683,108.351 61.494,108.561C62.515,108.617 62.371,108.921 62.717,109.314C62.836,109.449 63.101,109.435 63.173,109.599C63.293,109.867 63.309,124.368 63.119,125.444C62.662,128.026 61.086,129.614 60.581,130.556C59.753,132.099 58.925,132.471 58.643,132.699C55.357,135.349 51.498,135.796 50.493,136.032ZM377.5,107.964C380.306,108.045 380.288,108.042 380.53,108.052C380.644,108.056 385.547,108.792 386.625,109.221C387.416,109.536 387.789,110.013 387.824,110.035C388.315,110.337 388.416,110.15 389.724,111.186C389.996,111.401 391.806,112.833 392.626,114.421C392.945,115.039 392.999,114.982 393.387,115.569C394.063,116.591 394.389,118.805 394.56,119.483C395.274,122.317 394.203,127.15 390.612,130.617C390.454,130.769 390.374,130.998 390.197,131.127C389.774,131.435 389.262,131.606 388.836,131.909C388.663,132.032 388.586,132.258 388.42,132.389C386.332,134.025 383.897,134.157 383.477,134.179C377.889,134.481 376.787,133.171 376.305,132.903C375.52,132.467 375.44,132.674 374.681,132.202C374.051,131.81 371.627,129.417 371.615,129.403C371.399,129.152 369.085,125.66 368.864,123.453C368.689,121.706 368.764,109.736 368.789,109.543C369.035,107.585 371.116,107.964 377.5,107.964ZM335.081,128.554C335.514,132.514 335.621,133.197 334.474,133.419C331.738,133.946 327.905,133.409 326.51,133.323C323.954,133.165 323.915,133.392 321.477,132.567C319.973,132.057 319.947,132.177 318.489,131.523C315.612,130.231 313.624,128.952 313.033,126.555C312.564,124.658 313.565,125.018 315.327,124.154C315.487,124.076 317.152,123.259 317.331,123.162C319.172,122.158 323.306,120.112 324.565,119.665C325.14,119.462 325.729,119.289 326.284,119.035C326.419,118.974 326.475,118.796 326.608,118.733C327.154,118.473 327.752,118.338 328.297,118.077C328.433,118.011 328.489,117.831 328.625,117.765C329.166,117.502 329.763,117.365 330.304,117.101C330.749,116.885 330.634,116.653 332.411,116.046C332.736,115.935 333.081,115.772 333.419,115.834C333.59,115.866 333.562,116.163 333.689,116.282C333.837,116.421 334.131,116.402 334.215,116.586C334.736,117.721 333.267,120.981 335.081,128.554Z" style="fill:rgb(5,124,246);fill-opacity:1;"/>
            <path d="M115.049,45.503C115.058,45.1 115.141,41.475 115.365,40.468C115.685,39.039 115.859,39.121 116.524,37.512C116.787,36.876 116.871,36.936 117.215,36.339C117.489,35.863 117.637,35.316 117.939,34.856C118.058,34.675 118.304,34.616 118.45,34.457C118.724,34.162 118.588,34.046 119.422,33.424C119.998,32.995 119.896,32.92 120.43,32.425C120.62,32.249 120.888,32.173 121.084,32.003C121.249,31.86 121.328,31.633 121.499,31.499C121.586,31.431 121.583,31.443 122.636,30.72C122.988,30.478 124.535,29.416 127.518,28.552C130.189,27.778 135.147,28.237 135.533,28.307C135.962,28.384 140.114,29.803 140.286,29.902C140.429,29.984 140.497,30.166 140.64,30.248C141.119,30.524 141.67,30.668 142.136,30.967C142.314,31.081 142.375,31.32 142.532,31.461C142.717,31.627 142.968,31.708 143.152,31.875C143.312,32.02 144.074,32.772 144.154,32.85C145.404,34.083 147.122,36.668 147.137,36.694C148.953,39.803 149.37,44.508 149.123,46.431C148.78,49.111 148.925,49.14 147.96,51.672C147.761,52.195 147.969,52.807 146.176,55.287C145.12,56.747 145.351,56.951 144.497,57.497C144.284,57.634 144.04,57.727 143.849,57.893C143.682,58.038 143.612,58.277 143.44,58.416C143.224,58.589 142.938,58.656 142.709,58.811C142.356,59.049 141.373,60.017 140.467,60.443C140.197,60.571 139.904,60.652 139.645,60.8C139.514,60.874 139.445,61.034 139.311,61.102C138.955,61.285 138.838,61.345 134.478,62.421C132.117,63.003 131.157,62.675 126.458,61.663C125.229,61.399 125.139,61.17 123.543,60.427C122.809,60.085 122.882,59.993 122.413,59.616C121.461,58.851 120.741,58.465 120.586,58.382C119.387,57.738 119.25,56.94 119.143,56.8C119.014,56.631 118.783,56.561 118.65,56.394C118.479,56.179 118.407,55.898 118.247,55.674C118.078,55.436 116.777,53.604 116.35,52.559C114.792,48.748 115.116,48.664 115.049,45.503Z" style="fill:rgb(5,124,246);fill-opacity:1;"/>
            <path d="M445.098,41.434C445.505,39.502 445.286,39.406 447.483,35.488C448.049,34.479 450.904,31.766 451.441,31.429C453.284,30.274 453.149,30.058 454.534,29.58C457.05,28.71 458.868,28.044 462.512,28.256C465.451,28.426 469.848,30.582 470.294,30.859C471.977,31.908 471.991,31.85 472.132,31.947C472.312,32.071 472.362,32.326 472.523,32.475C472.816,32.747 472.971,32.584 473.533,33.469C473.673,33.689 473.769,33.94 473.936,34.14C474.073,34.304 474.301,34.377 474.431,34.547C474.602,34.772 474.668,35.062 474.821,35.299C475.439,36.255 475.376,36.275 475.979,37.233C476.067,37.373 476.24,37.447 476.319,37.591C477.545,39.812 477.748,42.069 477.784,42.475C478.414,49.488 476.254,52.001 475.536,53.52C475.235,54.155 475.154,54.093 474.802,54.688C474.02,56.009 474.131,56.107 473.519,56.518C473.315,56.654 473.076,56.744 472.899,56.914C472.729,57.078 472.675,57.341 472.499,57.498C472.3,57.676 472.013,57.729 471.803,57.893C471.642,58.018 471.566,58.232 471.403,58.355C471.178,58.523 470.891,58.593 470.658,58.75C470.419,58.912 468.809,60 467.486,60.465C463.536,61.854 462.025,61.795 460.492,61.727C458.406,61.634 453.843,60.119 453.729,60.057C453.588,59.979 453.523,59.799 453.383,59.72C452.896,59.446 452.341,59.3 451.865,59.006C451.691,58.9 451.623,58.674 451.468,58.541C450.121,57.388 450.078,57.461 448.845,56.168C447.168,54.41 445.523,50.85 445.248,49.555C444.388,45.508 444.108,45.449 445.098,41.434Z" style="fill:rgb(5,124,246);fill-opacity:1;"/>
        </g>
    </g>
</svg>
