<svg xmlns="http://www.w3.org/2000/svg" xmlns:xlink="http://www.w3.org/1999/xlink" xmlns:serif="http://www.serif.com/" width="100%" height="100%" viewBox="0 0 40 40" xml:space="preserve" style="fill-rule:evenodd;clip-rule:evenodd;stroke-linejoin:round;stroke-miterlimit:2;">    <g transform="matrix(1.333333,0,0,1.333333,0.000001,0)">        <g transform="matrix(0.75,-0,-0,0.75,-0.000001,-0)">        </g>    </g>    <g transform="matrix(1.333333,0,0,1.333333,0.000001,0)">        <path d="M13.988,10.34C13.707,10.656 13.184,10.426 13.176,10.012C13.172,9.871 13.242,9.727 13.379,9.57C14.375,8.461 14.543,7.156 13.566,5.988C13.129,5.465 12.816,5.055 12.629,4.758C11.66,3.211 11.973,1.637 13.105,0.305C13.242,0.141 13.371,0.047 13.484,0.016C13.824,-0.07 14.102,0.203 14.066,0.559C14.059,0.648 13.98,0.777 13.832,0.949C13.055,1.832 12.738,2.812 13.266,3.914C13.562,4.531 14.215,5.199 14.543,5.688C15.293,6.785 15.391,7.938 14.832,9.141C14.652,9.531 14.273,10.016 13.988,10.34Z" style="fill:rgb(7,125,246);fill-rule:nonzero;"></path>    </g>    <g transform="matrix(1.333333,0,0,1.333333,0.000001,0)">        <path d="M10.074,10.332C9.688,10.742 9,10.262 9.324,9.746C9.328,9.734 9.438,9.598 9.656,9.328C10.203,8.645 10.055,7.641 9.48,6.988C9.27,6.746 9.004,6.453 8.84,6.188C8.145,5.074 8.215,3.969 9.051,2.871C9.184,2.695 9.305,2.582 9.414,2.531C9.887,2.316 10.316,2.84 10,3.246C9.918,3.352 9.832,3.461 9.734,3.574C9.234,4.152 9.203,4.934 9.621,5.566C9.891,5.977 10.242,6.367 10.449,6.672C11.262,7.879 11.07,9.285 10.074,10.332Z" style="fill:rgb(7,125,246);fill-rule:nonzero;"></path>    </g>    <g transform="matrix(1.333333,0,0,1.333333,0.000001,0)">        <path d="M17.953,6.176C18.316,6.621 18.586,6.98 18.758,7.52C19.059,8.48 18.727,9.477 18.059,10.23C17.852,10.461 17.637,10.527 17.414,10.43C17.277,10.367 17.191,10.27 17.156,10.137C17.078,9.832 17.227,9.715 17.438,9.473C18.023,8.789 18.074,8.055 17.578,7.273C17.527,7.191 17.398,7.023 17.188,6.766C16.82,6.32 16.555,5.961 16.383,5.422C16.078,4.461 16.414,3.465 17.082,2.711C17.285,2.48 17.5,2.414 17.727,2.516C17.863,2.574 17.949,2.672 17.98,2.805C18.059,3.113 17.914,3.23 17.703,3.473C17.113,4.156 17.066,4.887 17.559,5.668C17.609,5.75 17.742,5.918 17.953,6.176Z" style="fill:rgb(7,125,246);fill-rule:nonzero;"></path>    </g>    <g transform="matrix(1.333333,0,0,1.333333,0.000001,0)">        <clipPath id="_clip1">            <rect x="0.848" y="11" width="28.305" height="18.031"></rect>        </clipPath>        <g clip-path="url(#_clip1)">            <path d="M19.785,25.691C19.781,25.703 19.785,25.715 19.793,25.719C19.797,25.723 19.801,25.723 19.805,25.723C22.852,25.719 24.891,25.719 25.922,25.723C26.867,25.727 26.219,27.145 25.945,27.566C25.516,28.23 24.918,28.676 24.156,28.902C23.863,28.988 23.328,29.031 22.547,29.031C15.348,29.023 9.223,29.023 4.172,29.031C2.988,29.035 2.066,28.578 1.402,27.664C1.07,27.211 0.887,26.742 0.852,26.262C0.816,25.816 1.129,25.719 1.527,25.719C2.246,25.719 4.23,25.723 7.484,25.727C7.492,25.727 7.5,25.719 7.5,25.707C7.5,25.703 7.5,25.699 7.496,25.695C5.449,23.938 4.094,21.699 3.262,19.082C2.559,16.883 2.199,14.648 2.18,12.383C2.176,12.023 2.355,11.844 2.711,11.84C5.055,11.836 12.32,11.836 24.508,11.84C24.883,11.84 25.066,12.012 25.066,12.359C25.059,12.969 25.031,13.527 24.977,14.031C24.973,14.055 24.992,14.078 25.016,14.082C25.023,14.082 25.031,14.082 25.039,14.078C25.953,13.715 27.07,13.715 27.914,14.273C28.805,14.863 29.211,15.695 29.145,16.766C29,19.027 27,20.73 25.066,21.555C24.246,21.902 23.422,22.168 22.586,22.348C22.551,22.355 22.523,22.379 22.504,22.41C22.133,23.082 21.691,23.711 21.176,24.289C20.855,24.652 20.402,25.105 19.82,25.648C19.805,25.664 19.793,25.68 19.785,25.691ZM13.625,25.727C16.09,25.727 17.469,25.727 17.762,25.734C17.883,25.734 17.996,25.703 18.102,25.641C22.359,23.098 23.934,17.449 24.098,12.82C24.098,12.805 24.086,12.789 24.066,12.789C23.871,12.785 20.391,12.785 13.625,12.785C6.863,12.785 3.383,12.785 3.188,12.789C3.168,12.789 3.156,12.801 3.156,12.82C3.316,17.449 4.895,23.098 9.148,25.641C9.254,25.703 9.367,25.734 9.488,25.73C9.785,25.727 11.164,25.723 13.625,25.727ZM23.203,21.215C24.402,20.871 25.582,20.355 26.523,19.551C27.379,18.824 28.066,17.973 28.184,16.809C28.227,16.387 28.164,16.023 28,15.719C27.375,14.547 25.992,14.648 24.914,15.117C24.883,15.129 24.855,15.16 24.852,15.199C24.609,17.266 24.051,19.266 23.184,21.191C23.18,21.199 23.184,21.211 23.191,21.215L23.203,21.215ZM13.641,28.07C19.375,28.074 22.367,28.074 22.609,28.074C23.309,28.078 23.773,28.039 24.004,27.957C24.586,27.742 25.027,27.332 25.328,26.723C25.336,26.711 25.332,26.695 25.316,26.688C25.312,26.684 25.309,26.684 25.305,26.684C25.195,26.684 21.305,26.68 13.641,26.68L1.973,26.68C1.957,26.684 1.949,26.695 1.949,26.711L1.949,26.719C2.254,27.328 2.691,27.738 3.273,27.953C3.504,28.035 3.969,28.078 4.672,28.074C4.914,28.07 7.902,28.07 13.641,28.07Z" style="fill:rgb(7,125,246);fill-rule:nonzero;"></path>        </g>    </g>    <g transform="matrix(1.333333,0,0,1.333333,0.000001,0)">        <path d="M10.125,23.59C10.051,23.965 9.648,24.121 9.336,23.879C6.602,21.754 5.48,18.461 4.988,15.164C4.953,14.938 4.957,14.781 5,14.703C5.082,14.539 5.203,14.453 5.363,14.445C5.777,14.418 5.871,14.68 5.926,15.059C6.203,16.91 6.73,18.797 7.652,20.441C8.25,21.516 9.027,22.426 9.984,23.164C10.094,23.25 10.156,23.449 10.125,23.59Z" style="fill:rgb(7,125,246);fill-rule:nonzero;"></path>    </g></svg>