<svg xmlns="http://www.w3.org/2000/svg" width="40" height="40" viewBox="0 0 40 40" fill="none"><g clip-path="url(#clip0_113_7)"><path d="M19.8493 12.8369C15.0999 12.8369 10.6349 14.6844 7.28038 18.039C3.92038 21.399 2.07149 25.8653 2.07149 30.6147C2.07149 30.8868 2.2903 31.1056 2.56243 31.1056H6.91115C7.18329 31.1056 7.40209 30.8868 7.40209 30.6147C7.40209 23.7497 12.9843 18.1675 19.8493 18.1675C23.7645 18.1675 27.4349 20.0055 29.7802 23.1138L26.6062 24.5402C24.9405 22.6872 22.531 21.522 19.8493 21.522C14.8387 21.522 10.758 25.5986 10.758 30.6147C10.758 35.6253 14.8387 39.7005 19.8493 39.7005C24.8599 39.7005 28.9405 35.6253 28.9405 30.6147C28.9405 29.626 28.7805 28.681 28.492 27.7935L31.3132 25.7586C31.9641 27.2916 32.2964 28.9203 32.2964 30.6147C32.2964 30.8868 32.5152 31.1056 32.7874 31.1056H37.1361C37.4082 31.1056 37.627 30.8868 37.627 30.6147C37.627 25.8653 35.7782 21.399 32.4182 18.039C29.0636 14.6844 24.5987 12.8314 19.8493 12.8314V12.8369ZM28.9952 20.7699C26.6499 18.5955 23.5881 17.3073 20.3457 17.1897V13.8297C24.5987 13.9528 28.466 15.6677 31.3611 18.4027L28.9952 20.7699ZM6.42568 30.1169H3.06568C3.18739 25.8598 4.90773 21.9979 7.63731 19.1029L10.01 21.4742C7.88346 23.7607 6.54329 26.7897 6.42568 30.1169ZM10.7088 20.774L8.33748 18.4027C11.2325 15.6677 15.0999 13.9528 19.3529 13.8297V17.1897C16.0243 17.3073 12.9953 18.6489 10.7088 20.774ZM14.8223 36.96C14.9399 34.2892 17.1457 32.1477 19.8493 32.1477C22.5529 32.1477 24.7587 34.2892 24.8763 36.96C23.4923 38.0554 21.746 38.7131 19.8493 38.7131C17.9525 38.7131 16.2062 38.0554 14.8223 36.96ZM19.8493 31.133C18.3915 31.133 17.2045 29.946 17.2045 28.4882C17.2045 27.0359 18.3915 25.8489 19.8493 25.8489C21.307 25.8489 22.4941 27.0359 22.4941 28.4882C22.4941 29.946 21.307 31.133 19.8493 31.133ZM25.7734 36.1326C25.4 33.9856 23.8766 32.2215 21.8636 31.5063C22.8414 30.854 23.4814 29.7436 23.4814 28.4882C23.4814 26.4902 21.8527 24.8615 19.8493 24.8615C17.8459 24.8615 16.2171 26.4902 16.2171 28.4882C16.2171 29.7436 16.8626 30.854 17.8349 31.5063C15.8219 32.2215 14.2985 33.9856 13.9252 36.1326C12.5741 34.6844 11.7453 32.7398 11.7453 30.6147C11.7453 26.1484 15.3829 22.5108 19.8493 22.5108C24.3156 22.5108 27.9532 26.1484 27.9532 30.6147C27.9532 32.7398 27.1245 34.6844 25.7734 36.1326ZM27.2476 25.3361L32.1296 23.1467C32.2855 23.0769 32.4619 23.1357 32.5467 23.2793C32.6329 23.4297 32.5946 23.6116 32.4564 23.7128L28.1187 26.8431C27.8725 26.3084 27.584 25.8065 27.2476 25.3361ZM33.2729 30.1169C33.2141 28.3925 32.8298 26.7309 32.1296 25.1651L33.0335 24.5142C33.5833 24.119 33.7433 23.3764 33.4014 22.7884C33.065 22.2003 32.3443 21.9651 31.7248 22.2441L30.7046 22.6981C30.3888 22.2646 30.0523 21.8585 29.6886 21.4687L32.0612 19.1029C34.7908 21.9979 36.5111 25.8598 36.6329 30.1169H33.2729ZM39.6783 8.93128C39.614 8.7453 39.4431 8.61128 39.2462 8.59487L36.0776 8.35966L34.8756 5.42222C34.8017 5.23487 34.6199 5.11179 34.4161 5.11179C34.2192 5.11179 34.0373 5.23487 33.9621 5.42222L32.76 8.35966L29.5929 8.59487C29.3946 8.61128 29.2236 8.7453 29.1607 8.93128C29.1019 9.1241 29.1607 9.33196 29.3098 9.46598L31.7344 11.5173L30.9823 14.5997C30.933 14.7911 31.0082 15.0003 31.1682 15.1179C31.3296 15.2356 31.5484 15.241 31.7194 15.1385L34.4216 13.4619L37.1197 15.1385C37.2004 15.1863 37.2906 15.2082 37.3809 15.2082C37.4835 15.2082 37.5846 15.1822 37.6694 15.1179C37.8294 15.0003 37.9046 14.7911 37.8568 14.5997L37.1033 11.5173L39.5293 9.46598C39.6783 9.33743 39.7426 9.1241 39.6783 8.93128ZM36.2281 10.9566C36.0886 11.0797 36.0243 11.2711 36.0667 11.453L36.6123 13.6588L34.6787 12.4622C34.598 12.4144 34.5077 12.3884 34.4161 12.3884C34.3258 12.3884 34.2356 12.4144 34.1604 12.4622L32.2267 13.6588L32.7655 11.453C32.8134 11.2711 32.7505 11.0797 32.6055 10.9566L30.8701 9.49196L33.1402 9.32102C33.3262 9.31145 33.4876 9.19384 33.5559 9.01743L34.4161 6.91282L35.2763 9.01743C35.346 9.19384 35.5115 9.31145 35.6988 9.32102L37.9635 9.49196L36.2281 10.9566ZM14.7429 4.34872L17.1676 6.4L16.4086 9.48786C16.3607 9.67931 16.4359 9.88307 16.6014 9.99931C16.7614 10.1169 16.9802 10.1279 17.1512 10.0212L19.8493 8.34872L22.5474 10.0212C22.6267 10.0745 22.7183 10.0964 22.8086 10.0964C22.9098 10.0964 23.011 10.0636 23.0971 9.99931C23.2626 9.88307 23.3378 9.67931 23.29 9.48786L22.531 6.4L24.9556 4.34872C25.1115 4.22017 25.1703 4.01231 25.106 3.81949C25.0472 3.62667 24.8763 3.49402 24.6725 3.47761L21.5108 3.24786L20.3088 0.310427C20.2335 0.123077 20.0517 0 19.8493 0C19.651 0 19.4705 0.123077 19.3953 0.310427L18.1932 3.24786L15.026 3.47761C14.8277 3.49402 14.6513 3.62667 14.5925 3.81949C14.5282 4.01231 14.587 4.22017 14.7429 4.34872ZM18.5665 4.20923C18.7539 4.19282 18.9194 4.07521 18.9891 3.90427L19.8493 1.79966L20.7094 3.90427C20.7792 4.07521 20.9447 4.19829 21.132 4.20923L23.3966 4.3747L21.6599 5.84342C21.5163 5.96649 21.4575 6.15931 21.4999 6.34119L22.04 8.54701L20.1105 7.35042C20.0311 7.30256 19.9395 7.27521 19.8493 7.27521C19.759 7.27521 19.6674 7.30256 19.5881 7.35042L17.6585 8.54701L18.1987 6.34119C18.2411 6.15931 18.1823 5.96649 18.0387 5.84342L16.3019 4.3747L18.5665 4.20923ZM2.58432 15.1385L5.28243 13.4619L7.97919 15.1385C8.05987 15.1863 8.15013 15.2082 8.24175 15.2082C8.34295 15.2082 8.44414 15.1822 8.5303 15.1179C8.69577 15.0003 8.76961 14.7911 8.72175 14.5997L7.96414 11.5173L10.3888 9.46598C10.5433 9.33743 10.6021 9.1241 10.5378 8.93128C10.479 8.7453 10.3081 8.61128 10.1057 8.59487L6.9385 8.35966L5.74192 5.42222C5.66124 5.23487 5.48483 5.11179 5.28243 5.11179C5.08414 5.11179 4.90226 5.23487 4.82295 5.42222L3.62637 8.35966L0.45782 8.59487C0.255427 8.61128 0.0844866 8.7453 0.0256832 8.93128C-0.0385903 9.1241 0.0202131 9.33196 0.174743 9.46598L2.60073 11.5173L1.84175 14.5997C1.79389 14.7911 1.8691 15.0003 2.03457 15.1179C2.19457 15.2356 2.41337 15.241 2.58432 15.1385ZM1.73508 9.49196L3.9997 9.32102C4.18705 9.31145 4.35252 9.19384 4.42226 9.01743L5.28243 6.91282L6.14261 9.01743C6.21098 9.19384 6.37235 9.31145 6.55833 9.32102L8.82842 9.49196L7.09303 10.9566C6.94807 11.0797 6.88517 11.2711 6.93303 11.453L7.47184 13.6588L5.53816 12.4622C5.46295 12.4144 5.37269 12.3884 5.28243 12.3884C5.19081 12.3884 5.10055 12.4144 5.01987 12.4622L3.0862 13.6588L3.63184 11.453C3.67423 11.2711 3.60996 11.0797 3.47047 10.9566L1.73508 9.49196Z" fill="#077DF6"></path></g><defs><clipPath id="clip0_113_7"><rect width="40" height="40" fill="white"></rect></clipPath></defs></svg>