<svg xmlns="http://www.w3.org/2000/svg" xmlns:xlink="http://www.w3.org/1999/xlink" xmlns:serif="http://www.serif.com/" width="100%" height="100%" viewBox="0 0 40 40" xml:space="preserve" style="fill-rule:evenodd;clip-rule:evenodd;stroke-linejoin:round;stroke-miterlimit:2;">    <g transform="matrix(1.333333,0,0,1.333333,0.000001,0)">        <g transform="matrix(0.75,-0,-0,0.75,-0.000001,-0)">        </g>    </g>    <g transform="matrix(1.333333,0,0,1.333333,0.000001,0)">        <path d="M11.977,14.258C8.055,14.258 4.867,11.066 4.867,7.148C4.867,3.227 8.055,0.035 11.977,0.035C15.898,0.035 19.086,3.227 19.086,7.148C19.086,11.066 15.898,14.258 11.977,14.258ZM11.977,1.371C8.793,1.371 6.199,3.961 6.199,7.148C6.199,10.332 8.793,12.926 11.977,12.926C15.16,12.926 17.754,10.332 17.754,7.148C17.754,3.961 15.16,1.371 11.977,1.371Z" style="fill:rgb(7,125,246);fill-rule:nonzero;"></path>    </g>    <g transform="matrix(1.333333,0,0,1.333333,0.000001,0)">        <path d="M1.824,26.578L0.488,26.578L0.488,21.965C0.488,18.973 2.922,16.539 5.914,16.539L18.047,16.539L18.047,17.871L5.914,17.871C3.66,17.871 1.824,19.707 1.824,21.965L1.824,26.578Z" style="fill:rgb(7,125,246);fill-rule:nonzero;"></path>    </g>    <g transform="matrix(1.333333,0,0,1.333333,0.000001,0)">        <path d="M26.742,28.988L22.25,26.828L17.75,28.988L18.422,24.051L14.977,20.441L19.887,19.555L22.25,15.16L24.605,19.555L29.512,20.441L26.066,24.051L26.742,28.988ZM17.652,21.312L19.828,23.598L19.406,26.711L22.25,25.348L25.086,26.711L24.66,23.598L26.836,21.312L23.734,20.75L22.246,17.977L20.754,20.75L17.652,21.312Z" style="fill:rgb(7,125,246);fill-rule:nonzero;"></path>    </g></svg>