<svg xmlns="http://www.w3.org/2000/svg" width="40" height="40" viewBox="0 0 40 40" fill="none"><path d="M34.7008 33.0079C37.8106 29.5029 39.7019 24.893 39.7019 19.8509C39.7019 14.8075 37.8106 10.2031 34.7008 6.69812V6.68855C34.6694 6.63521 34.627 6.59692 34.5832 6.56C30.9456 2.53675 25.6902 0 19.8509 0C14.0116 0 8.75624 2.53265 5.11863 6.56C5.07487 6.59692 5.03248 6.63521 5.00102 6.68855V6.69812C1.89128 10.2031 0 14.8075 0 19.8509C0 24.893 1.89128 29.4974 4.99555 33.0024C5.00102 33.0024 5.00102 33.0079 5.00102 33.0133C5.03248 33.0667 5.0694 33.1091 5.11863 33.1405C8.75624 37.1692 14.0116 39.7005 19.8509 39.7005C25.7436 39.7005 31.0373 37.1214 34.6749 33.0338C34.6803 33.0229 34.6913 33.0229 34.6954 33.0133C34.6954 33.0133 34.6954 33.0079 34.7008 33.0079ZM0.823248 20.2557H9.72854C9.76547 23.8838 10.3002 27.2807 11.2082 30.1867C9.07077 30.7104 7.12068 31.4215 5.46461 32.3077C2.65026 29.0598 0.918974 24.8561 0.823248 20.2557ZM5.46461 7.39282C7.12068 8.28034 9.07077 8.99008 11.2082 9.51384C10.3002 12.4198 9.76547 15.8167 9.72854 19.4448H0.823248C0.918974 14.8444 2.65026 10.6407 5.46461 7.39282ZM38.8786 19.4448H29.9733C29.9364 15.8167 29.4017 12.4198 28.4937 9.51384C30.6311 8.99008 32.5757 8.28034 34.2373 7.39829C37.0516 10.6407 38.7829 14.8444 38.8786 19.4448ZM29.1624 19.4448H20.2571V10.5231C22.8526 10.4971 25.3908 10.214 27.7306 9.70119C28.6058 12.5374 29.1241 15.8701 29.1624 19.4448ZM20.2571 9.71213V0.83282C23.2383 1.09538 25.8612 4.23658 27.4735 8.93128C25.2144 9.41812 22.7679 9.68478 20.2571 9.71213ZM19.4448 9.71213C16.934 9.68478 14.4875 9.41812 12.2284 8.93128C13.8407 4.23658 16.4636 1.09538 19.4448 0.83282V9.71213ZM19.4448 10.5231V19.4448H10.5395C10.5723 15.8701 11.0961 12.5374 11.9713 9.70119C14.3111 10.214 16.8492 10.4971 19.4448 10.5231ZM10.5395 20.2557H19.4448V29.1774C16.8492 29.2034 14.3111 29.4865 11.9713 30.0007C11.0961 27.1631 10.5778 23.8304 10.5395 20.2557ZM19.4448 29.9897V38.8732C16.4636 38.6106 13.8407 35.4653 12.2229 30.7747C14.4875 30.2838 16.934 30.0157 19.4448 29.9897ZM20.2571 29.9897C22.7679 30.0157 25.2144 30.2838 27.4735 30.7747C25.8612 35.4653 23.2383 38.6106 20.2571 38.8732V29.9897ZM20.2571 29.1774V20.2557H29.1624C29.1241 23.8304 28.6058 27.1631 27.7306 30.0007C25.3908 29.4865 22.8526 29.2034 20.2571 29.1774ZM29.9733 20.2557H38.8786C38.7829 24.8561 37.0516 29.0598 34.2373 32.3077C32.5812 31.4215 30.6311 30.7104 28.4937 30.1867C29.4017 27.2807 29.9364 23.8838 29.9733 20.2557ZM33.6697 6.77333C32.0943 7.59111 30.2564 8.25846 28.2434 8.7453C27.0304 5.23487 25.2567 2.53265 23.185 1.10632C27.2766 1.83248 30.9251 3.87282 33.6697 6.77333ZM16.5224 1.10632C14.4451 2.52718 12.6714 5.23487 11.4585 8.7453C9.44547 8.25846 7.60752 7.59111 6.03213 6.77333C8.77675 3.87282 12.4253 1.83248 16.5224 1.10632ZM6.03213 32.9272C7.60752 32.1094 9.44547 31.442 11.4585 30.9566C12.6714 34.4656 14.4451 37.1747 16.5224 38.5955C12.4253 37.868 8.77675 35.8277 6.03213 32.9272ZM23.1795 38.5955C25.2567 37.1747 27.0304 34.4656 28.2434 30.9566C30.2564 31.4475 32.0943 32.1094 33.6697 32.9272C30.9251 35.8332 27.2766 37.868 23.1795 38.5955Z" fill="#077DF6"></path></svg>